<?xml version="1.0" encoding="iso-8859-1"?>
<!-- Generator: Adobe Illustrator 18.1.1, SVG Export Plug-In . SVG Version: 6.00 Build 0)  -->
<svg version="1.1" id="Layer_1" xmlns="http://www.w3.org/2000/svg" xmlns:xlink="http://www.w3.org/1999/xlink" x="0px" y="0px"
	 viewBox="0 0 600 200" style="enable-background:new 0 0 600 200;" xml:space="preserve">
<g>
	<rect x="0" y="0" style="fill:none;" width="200" height="200"/>
	<rect x="200" y="0" style="fill:none;" width="200" height="200"/>
	<rect x="400" y="0" style="fill:none;" width="200" height="200"/>
	<g>
		<circle style="fill:none;stroke:#1E477A;stroke-miterlimit:10;" cx="300" cy="100" r="75"/>
		<g>
			<path style="fill:#1E477A;" d="M332.035,71.539c-1.181,7.313-5.164,10.085-9.415,9.399c-4.25-0.686-7.16-4.572-5.979-11.885
				c0.686-4.25,4.688-7.139,8.939-6.453C329.831,63.287,332.721,67.289,332.035,71.539z"/>
			<path style="fill:#1E477A;" d="M274.978,108.929c0.83-2.488,3.147-4.126,5.714-4.126c0.275,0,0.555,0.018,0.839,0.06
				l34.012,4.739c0.033,0.004,0.066,0.007,0.1,0.007c0.246,0,0.484-0.128,0.615-0.344l18.527-30.137
				c0.745-1.213,2.321-1.619,3.56-0.92l1.438,0.812c1.184,0.668,1.67,2.133,1.123,3.376l-14.341,32.558
				c-0.614,1.394-1.094,2.843-1.435,4.327l-3.92,17.096c-0.151,0.657-0.735,1.122-1.409,1.122h-5.016
				c-0.777,0-1.415-0.613-1.445-1.389c-0.163-4.314-1.586-6.861-9.924-7.787c-10.531-1.169-17.275-3.451-19.022,7.95
				c-0.108,0.706-0.716,1.226-1.428,1.226h-3.576c-0.576,0-1.096-0.34-1.325-0.869c-0.654-1.5-1.367-3.301-2.029-5.322
				c-1.287-3.934-2.387-8.687-2.39-13.658C273.647,114.771,274.021,111.814,274.978,108.929z"/>
			<path style="fill:#1E477A;" d="M287.697,98.341c-0.556,0.498-0.877,1.222-0.877,1.969v0.767c0,1.319,0.963,2.432,2.269,2.622
				l20.744,3.01c0.127,0.018,0.254,0.027,0.379,0.027c0.115,0,0.228-0.009,0.341-0.024l4.115,0.576l11.407-18.898
				c0.429-0.715,0.501-1.581,0.192-2.353c-0.309-0.774-0.958-1.352-1.761-1.575l-6.157-1.685c-0.782-0.214-1.576-0.32-2.358-0.32
				c-3.409,0-6.526,4.007-8.013,7.229l-4.271,8.052l5.966,0.633c0.581,0.062,1.001,0.58,0.94,1.162l-0.018,0.17l-7.508-0.794
				l-13.338-1.235C289.005,97.596,288.253,97.841,287.697,98.341z M258.942,135.045c0.177,0.737,0.67,1.37,1.339,1.725l0.794,0.419
				c0.39,0.205,0.814,0.307,1.234,0.307c0.71,0,1.411-0.287,1.923-0.825l8.159-8.581c-0.952-3.542-1.605-7.538-1.412-11.53
				c-1.093,1.511-2.267,3.147-3.435,4.783c-4.136,5.791-8.19,11.554-8.192,11.558C258.916,133.522,258.765,134.309,258.942,135.045z
				"/>
		</g>
	</g>
	<g>
		<circle style="fill:none;stroke:#1E477A;stroke-miterlimit:10;" cx="500" cy="100" r="75"/>
		<path style="fill:#1E477A;" d="M470.617,126.25l-8.7-26.44c-0.115,0.037-0.228,0.037-0.304,0.037
			c-3.609,0-6.535-2.925-6.535-6.496c0-3.608,2.925-6.533,6.535-6.533c3.571,0,6.496,2.925,6.496,6.533
			c0,1.634-0.646,3.153-1.672,4.292c17.854,15.615,24.921,7.941,31.378-11.281c-2.506-0.913-4.292-3.306-4.292-6.116
			c0-3.61,2.888-6.496,6.496-6.496c3.57,0,6.496,2.886,6.496,6.496c0,2.81-1.785,5.203-4.292,6.116
			c6.459,19.222,13.485,26.896,31.34,11.281c-0.989-1.139-1.634-2.658-1.634-4.292c0-3.608,2.925-6.533,6.496-6.533
			c3.61,0,6.496,2.925,6.496,6.533c0,3.571-2.886,6.496-6.496,6.496c-0.113,0-0.226,0-0.341-0.037l-8.661,26.44H470.617z"/>
	</g>
	<g>
		<circle style="fill:none;stroke:#1E477A;stroke-miterlimit:10;" cx="100" cy="100" r="75"/>
		<g>
			<path style="fill:#1E477A;" d="M86.314,99.74c2.628,8.797,7.816,14.213,13.685,14.213c5.87,0,11.057-5.416,13.684-14.213
				c1.075,0.113,3.269-0.025,4.508-3.758c0.506-1.509,2.91-9.16,0.978-11.845c-0.439-0.618-1.111-0.879-1.802-0.922
				C119.867,62.547,111.342,62.5,100,62.5c-11.518,0-12.957,4.327-12.957,4.327c-7.361,2.458-5.317,13.27-4.55,16.421
				c-0.637,0.066-1.252,0.312-1.665,0.884c-1.932,2.683,0.473,10.34,0.974,11.849C83.045,99.717,85.245,99.86,86.314,99.74z
				 M82.404,85.271c0.088-0.125,0.168-0.163,0.319-0.163c1.872,0,1.908,3.321,1.908,3.357c0.001,0.535,0.438,0.969,0.97,0.969
				c0.533,0,0.967-0.428,0.974-0.965v-0.01c0-8.207,0.717-14.653,3.355-18.709c0.089,5.712,17.277,2.849,20.144,4.289
				c1.331,0.666,2.349,3.789,3.065,6.823c0.206,2.32,0.283,4.862,0.283,7.598v0.01c0.008,0.536,0.442,0.965,0.971,0.965
				c0.536,0,0.974-0.434,0.974-0.969c0-0.036,0.037-3.357,1.905-3.357c0.153,0,0.232,0.038,0.325,0.163
				c0.81,1.132,0.263,5.561-1.248,10.093c-0.372,1.121-1.063,2.452-2.256,2.452c-0.366,0-0.64-0.122-0.645-0.122
				c-0.257-0.133-0.563-0.142-0.833-0.025c-0.268,0.123-0.47,0.355-0.542,0.638c-2.259,8.32-6.995,13.698-12.073,13.698
				c-5.076,0-9.815-5.377-12.073-13.698c-0.076-0.279-0.276-0.507-0.537-0.626c-0.127-0.059-0.265-0.088-0.404-0.088
				c-0.146,0-0.293,0.03-0.426,0.093c-0.003,0.003-0.28,0.13-0.653,0.13c-1.194,0-1.886-1.332-2.259-2.452
				C82.139,90.833,81.595,86.402,82.404,85.271z"/>
			<path style="fill:#1E477A;" d="M133.564,117.604c-3.218-4.297-14.803-7.704-20.852-9.737c-1.125,3.895-4.235,14.172-7.493,20.877
				c-0.823-2.458-1.637-4.622-2.093-5.817c1.327-1.458,2.2-3.584,2.2-4.901c0-1.143-0.666-2.164-1.712-2.873
				c-1.163,0.473-2.371,0.746-3.613,0.746c-1.184,0-2.327-0.249-3.44-0.674c-0.982,0.709-1.6,1.695-1.6,2.801
				c0,1.317,0.875,3.443,2.199,4.901c-0.453,1.188-1.257,3.341-2.078,5.781c-3.235-6.716-6.316-16.999-7.443-20.949
				c-6.205,2.022-17.923,5.467-21.207,9.844c-2.495,3.329-3.931,7.158-3.931,11.244c0,0.652,0.058,1.295,0.133,1.933
				c5.699,3.983,23.904,6.719,37.367,6.719c13.462,0,31.669-2.736,37.37-6.719c0.068-0.638,0.13-1.281,0.13-1.933
				C137.5,124.762,136.06,120.932,133.564,117.604z"/>
		</g>
	</g>
</g>
</svg>
