<?xml version="1.0" encoding="iso-8859-1"?>
<!-- Generator: Adobe Illustrator 18.1.1, SVG Export Plug-In . SVG Version: 6.00 Build 0)  -->
<svg version="1.1" id="Layer_1" xmlns="http://www.w3.org/2000/svg" xmlns:xlink="http://www.w3.org/1999/xlink" x="0px" y="0px"
	 viewBox="0 -567.995 1280 320" style="enable-background:new 0 -567.995 1280 320;" xml:space="preserve">
<g>
	<g>
		<rect y="-567.995" style="fill:none;" width="320" height="320"/>
		<rect x="640" y="-567.995" style="fill:none;" width="320" height="320"/>
		<rect x="320" y="-567.995" style="fill:none;" width="320" height="320"/>
		<rect x="960" y="-567.995" style="fill:none;" width="320" height="320"/>
	</g>
	<g>
		<path style="fill:#FFFFFF;" d="M216.547-360.328c-2.483-8.166-22.554-19.222-31.882-23.296c-0.637-0.275-1.36-0.262-1.981,0.038
			l-22.627,10.938l-20.278-10.89c-0.608-0.326-1.334-0.371-1.984-0.122c-8.125,3.162-31.853,14.259-34.227,23.434
			c-1.696,6.55-2.371,9.763-2.4,9.894c-0.032,0.16-0.051,0.323-0.051,0.486c0,3.219,1.619,4.742,2.973,5.453
			c1.997,1.043,4.394,0.957,6.861,0.909c0.528-0.01,1.072-0.019,1.616-0.019h94.864c0.714,0,1.418,0.026,2.099,0.051
			c0.694,0.026,1.366,0.048,2.006,0.048c1.814,0,7.344,0,7.344-6.122C218.88-352.017,218.653-353.403,216.547-360.328z
			 M211.539-348.152c-0.586,0-1.2-0.022-1.837-0.045c-0.736-0.026-1.501-0.051-2.269-0.051H112.57c-0.576,0-1.146-0.01-1.702,0
			c-0.506,0.01-1.005,0-1.488,0c-0.006,0-0.01,0-0.016,0c-0.653,0-2.333,0.016-3.072-0.368c-0.147-0.077-0.387-0.186-0.426-1.002
			c0.192-0.88,0.896-4.019,2.294-9.424c1.386-5.354,18.259-14.931,30.342-19.798l20.374,10.941c0.666,0.362,1.469,0.378,2.154,0.045
			l22.726-10.986c13.357,6.003,26.922,15.517,28.25,19.888c2.026,6.666,2.128,7.626,2.128,9.418
			C214.138-348.443,214.138-348.152,211.539-348.152z"/>
		<path style="fill:#FFFFFF;" d="M135.101-411.531c1.28,3.197,2.739,5.488,4.272,7.901c0.432,0.682,0.874,1.373,1.315,2.099
			c1.539,2.525,3.101,4.416,4.838,5.85c-0.118,2.336-0.41,5.21-0.934,7.344c-0.314,1.27,0.464,2.557,1.738,2.87
			c1.27,0.314,2.557-0.464,2.87-1.738c0.707-2.883,1.04-6.826,1.114-9.552c0.022-0.8-0.362-1.558-1.018-2.013
			c-1.619-1.12-3.066-2.784-4.557-5.232c-0.461-0.752-0.915-1.469-1.363-2.173c-1.645-2.582-3.066-4.816-4.272-8.17
			c-0.314-0.874-1.226-1.488-2.147-1.568c-0.23-0.019-0.858-0.394-1.194-1.005c-2.394-4.394-3.421-11.107-2.973-12.477
			c0.061-0.038,0.326-0.131,0.906-0.122c0.675,0.051,1.29-0.234,1.754-0.701c0.461-0.464,0.71-1.101,0.688-1.757
			c-0.502-13.606,4.506-20.918,8.797-24.659c0.787-0.688,1.034-1.808,0.605-2.762c-0.029-0.064-0.061-0.128-0.093-0.186
			c2.022-1.36,5.421-1.27,5.462-1.261l0.131-2.368l1.952-1.344c-0.157-0.358,0.16-1.226,0.608-2.016
			c1.344,1.123,3.142,1.93,4.826,2.394c4.87,1.35,8.406,2.739,10.598,3.706c10.109,4.006,15.61,14.394,15.088,28.506
			c-0.022,0.637,0.211,1.254,0.646,1.718c0.435,0.461,1.04,0.73,1.677,0.742c0.438,0.01,0.659,0.096,0.646,0.054
			c0.509,1.446-0.515,8.17-2.909,12.56c-0.339,0.618-0.954,1.002-1.187,1.037c-0.867,0.122-1.597,0.707-1.898,1.526
			c-1.226,3.315-2.717,5.651-4.298,8.125c-0.48,0.749-0.963,1.51-1.453,2.31c-1.437,2.362-2.746,3.955-4.115,5.014
			c-0.586,0.451-0.928,1.152-0.922,1.894c0.016,2.16,0.192,6.336,1.206,10.058c0.288,1.053,1.245,1.747,2.288,1.747
			c0.208,0,0.416-0.029,0.627-0.083c1.264-0.346,2.01-1.651,1.664-2.912c-0.739-2.701-0.957-5.83-1.018-7.738
			c1.482-1.35,2.877-3.133,4.32-5.504c0.47-0.771,0.938-1.504,1.402-2.227c1.482-2.32,3.011-4.714,4.323-7.939
			c1.302-0.589,2.486-1.677,3.222-3.027c2.762-5.066,4.355-13.197,3.219-16.413c-0.458-1.296-1.389-2.246-2.669-2.765
			c-0.022-15.024-6.704-26.563-18.035-31.05c-2.253-0.992-6.016-2.477-11.162-3.901c-2.262-0.627-3.35-1.651-3.462-1.843
			c-0.106-0.634-0.461-1.2-0.989-1.568c-0.528-0.368-1.187-0.506-1.814-0.374c-2.07,0.413-3.882,3.187-4.595,4.95
			c-0.294,0.733-0.483,1.45-0.557,2.134c-3.139,0.442-7.533,1.952-8.752,6.381c-0.138,0.4-0.182,0.829-0.112,1.245
			c-4.109,4.598-8.029,12.083-8.048,23.901c-1.437,0.483-2.48,1.472-2.973,2.877c-1.139,3.21,0.454,11.334,3.216,16.403
			C132.39-413.201,133.686-412.075,135.101-411.531z"/>
		<path style="fill:#FFFFFF;" d="M851.693-420.155l-17.933,12.227v-24.704c0-1.331-1.078-2.413-2.413-2.413H768.65
			c-1.334,0-2.413,1.078-2.413,2.413v24.704l-17.933-12.227c-1.101-0.749-2.602-0.467-3.35,0.634
			c-0.752,1.101-0.467,2.602,0.634,3.35l45.082,30.736c2.618,1.782,5.971,2.675,9.328,2.675c3.357,0,6.71-0.893,9.328-2.675
			l45.082-30.736c1.101-0.749,1.386-2.25,0.634-3.35C854.294-420.622,852.794-420.904,851.693-420.155z M806.611-389.419
			c-3.584,2.445-9.635,2.442-13.219,0l-22.698-15.475c0.214-0.362,0.371-0.762,0.371-1.213v-24.115h57.875v24.115
			c0,0.451,0.157,0.851,0.371,1.213L806.611-389.419z"/>
		<path style="fill:#FFFFFF;" d="M861.44-429.406l-52.323-40.25c-2.454-1.888-5.69-2.925-9.117-2.925s-6.662,1.04-9.114,2.925
			l-52.349,40.269c-2.08,1.597-3.648,4.867-3.648,7.606v66.314c0,6.646,5.408,12.058,12.058,12.058H853.05
			c6.646,0,12.058-5.408,12.058-12.058v-66.314C865.107-424.52,863.53-427.797,861.44-429.406z M860.285-355.467
			c0,3.99-3.245,7.235-7.235,7.235H746.947c-3.99,0-7.235-3.245-7.235-7.235v-66.314c0-1.226,0.87-3.098,1.76-3.782l52.349-40.272
			c1.59-1.222,3.84-1.926,6.176-1.926c2.333,0,4.586,0.701,6.176,1.926l52.323,40.25c0.899,0.694,1.786,2.576,1.786,3.805v66.314
			H860.285z"/>
		<path style="fill:#FFFFFF;" d="M816.88-420.574h-33.76c-1.334,0-2.413,1.078-2.413,2.413c0,1.331,1.078,2.413,2.413,2.413h33.76
			c1.331,0,2.413-1.078,2.413-2.413S818.211-420.574,816.88-420.574z"/>
		<path style="fill:#FFFFFF;" d="M816.88-410.929h-33.76c-1.334,0-2.413,1.078-2.413,2.413s1.078,2.413,2.413,2.413h33.76
			c1.331,0,2.413-1.078,2.413-2.413S818.211-410.929,816.88-410.929z"/>
		<path style="fill:#FFFFFF;" d="M545.389-365.707c-0.349-2.358-1.878-4.438-4.682-6.352l-28.89-19.766
			c-1.491-1.014-3.226-1.555-5.018-1.555c-2.79,0-5.402,1.315-7.002,3.536l-7.498,10.614c-0.589,0.822-0.726,1.837-0.765,2.813
			c-2.867,0.422-11.181,0.163-24.819-13.472c-13.19-13.171-19.437-22.858-18.627-28.838c0.147-0.07,0.253-0.214,0.384-0.314
			c0.688-0.192,1.318-0.426,1.83-0.822l10.352-7.843c3.696-2.787,4.419-8.208,1.606-12.099l-20.704-28.234
			c-3.984-5.424-8.669-5.994-13.696-1.67c-3.181,2.726-8.458,9.309-10.643,13.27c-1.2,2.122-1.699,4.31-1.485,6.515
			c-0.765,3.171-2.432,12.518,0.346,25.555c3.773,17.718,13.978,34.73,30.33,50.56c27.341,26.454,51.357,30.406,63.238,30.41l0,0
			c6.989,0,11.859-1.283,14.106-2.227c2.086,0.09,4.15-0.499,6.16-1.706c3.894-2.307,10.294-7.798,12.912-11.082
			C544.896-360.981,545.731-363.368,545.389-365.707z M539.018-361.477c-2.256,2.829-8.214,7.939-11.6,9.939
			c-0.458,0.275-0.912,0.474-1.36,0.64c-3.296-1.43-9.098-4.464-10.835-6.637c-0.842-1.053-2.381-1.222-3.43-0.381
			c-1.053,0.845-1.226,2.381-0.381,3.434c1.533,1.917,4.467,3.83,7.146,5.318c-2.141,0.464-5.117,0.874-8.909,0.874l0,0
			c-11.142-0.003-33.738-3.776-59.843-29.037c-37.229-36.042-30.157-68.275-29.229-71.83c0.083-0.317,0.099-0.65,0.051-0.973
			c-0.192-1.293,0.083-2.573,0.854-3.933c1.91-3.459,6.822-9.597,9.562-11.946c1.261-1.085,2.381-1.658,3.238-1.658
			c0.368,0,1.491,0,3.338,2.512l20.694,28.221c1.258,1.738,0.986,4.128-0.605,5.328l-10.243,7.77
			c-0.042,0.019-0.112,0.042-0.182,0.064c-2.701-2.07-6.394-5.197-7.558-6.982c-0.736-1.13-2.253-1.446-3.379-0.714
			c-1.13,0.736-1.446,2.25-0.71,3.379c1.578,2.419,5.389,5.619,7.827,7.533c-1.946,7.955,4.234,18.573,19.798,34.115
			c12.403,12.4,21.443,15.002,26.845,15.002c2.368,0,4.141-0.528,5.011-1.021c0.653-0.371,1.101-1.024,1.21-1.766
			c0.048-0.333,0.067-0.81,0.07-1.338c0.003-0.294,0.01-0.797,0.045-1.075l7.328-10.371c1.114-1.549,3.603-1.936,5.29-0.787
			l28.886,19.763c1.594,1.091,2.47,2.109,2.605,3.034C540.691-364.091,540.176-362.91,539.018-361.477z"/>
		<path style="fill:#FFFFFF;" d="M477.213-444.453c18.883,5.766,33.661,20.467,39.526,39.322c0.326,1.046,1.29,1.715,2.33,1.715
			c0.24,0,0.486-0.035,0.726-0.109c1.286-0.4,2.006-1.77,1.606-3.056c-6.349-20.4-22.333-36.304-42.765-42.541
			c-1.29-0.406-2.653,0.333-3.05,1.622C475.197-446.209,475.923-444.846,477.213-444.453z"/>
		<path style="fill:#FFFFFF;" d="M480.566-462.545c28.314,6.694,49.965,29.514,55.149,58.131c0.214,1.178,1.242,2.006,2.4,2.006
			c0.144,0,0.291-0.013,0.438-0.038c1.328-0.24,2.208-1.51,1.968-2.838c-5.533-30.531-28.624-54.874-58.832-62.013
			c-1.309-0.298-2.627,0.502-2.938,1.814S479.251-462.856,480.566-462.545z"/>
		<g>
			<path style="fill:#FFFFFF;" d="M1120-339.621l-8.598-13.03c-0.083-0.131-8.925-13.514-17.955-29.693
				c-12.694-22.746-18.864-38.646-18.864-48.605c0-25.046,20.375-45.421,45.418-45.421c25.043,0,45.418,20.374,45.418,45.421
				c0,9.958-6.17,25.856-18.864,48.605c-8.547,15.312-17.005,28.25-17.942,29.674L1120-339.621z M1120-470.987
				c-22.077,0-40.035,17.958-40.035,40.038c0,8.893,6.118,24.365,18.179,45.984c8.931,16.003,17.661,29.219,17.747,29.35
				l4.109,6.224l4.106-6.224c0.934-1.418,9.296-14.208,17.75-29.354c12.234-21.926,18.179-36.97,18.179-45.984
				C1160.035-453.029,1142.077-470.987,1120-470.987z M1120-406.401c-13.696,0-24.842-11.142-24.842-24.838
				c0-13.696,11.142-24.842,24.842-24.842c13.696,0,24.838,11.142,24.838,24.842C1144.838-417.544,1133.696-406.401,1120-406.401z
				 M1120-450.696c-10.73,0-19.459,8.726-19.459,19.459c0,10.726,8.726,19.456,19.459,19.456c10.726,0,19.456-8.726,19.456-19.456
				C1139.456-441.969,1130.726-450.696,1120-450.696z"/>
		</g>
	</g>
</g>
</svg>
