<?xml version="1.0" encoding="iso-8859-1"?>
<!-- Generator: Adobe Illustrator 18.1.1, SVG Export Plug-In . SVG Version: 6.00 Build 0)  -->
<svg version="1.1" id="Layer_1" xmlns="http://www.w3.org/2000/svg" xmlns:xlink="http://www.w3.org/1999/xlink" x="0px" y="0px"
	 viewBox="0 0 186.051 154.11" style="enable-background:new 0 0 186.051 154.11;" xml:space="preserve">
<g>
	<linearGradient id="SVGID_1_" gradientUnits="userSpaceOnUse" x1="91.2803" y1="30.9371" x2="122.5548" y2="81.7581">
		<stop  offset="0.0055" style="stop-color:#EC1C24"/>
		<stop  offset="0.1868" style="stop-color:#FAAF3B"/>
		<stop  offset="0.2269" style="stop-color:#F9A438"/>
		<stop  offset="0.3825" style="stop-color:#F47C2E"/>
		<stop  offset="0.5064" style="stop-color:#F16428"/>
		<stop  offset="0.5824" style="stop-color:#F05B26"/>
		<stop  offset="1" style="stop-color:#380000"/>
	</linearGradient>
	<path style="fill:url(#SVGID_1_);" d="M78.332,4.73c-4.533,30.808,15.477,61.615,60.029,92.423c2.45,0,4.9,0,7.352,0
		C96.43,64.768,74.266,32.384,79.22,0C78.978,1.577,78.683,3.153,78.332,4.73z"/>
	<linearGradient id="SVGID_2_" gradientUnits="userSpaceOnUse" x1="83.588" y1="35.2705" x2="113.7415" y2="84.2701">
		<stop  offset="0.0055" style="stop-color:#EC1C24"/>
		<stop  offset="0.1868" style="stop-color:#FAAF3B"/>
		<stop  offset="0.2269" style="stop-color:#F9A438"/>
		<stop  offset="0.3825" style="stop-color:#F47C2E"/>
		<stop  offset="0.5064" style="stop-color:#F16428"/>
		<stop  offset="0.5824" style="stop-color:#F05B26"/>
		<stop  offset="1" style="stop-color:#380000"/>
	</linearGradient>
	<path style="fill:url(#SVGID_2_);" d="M75.955,12.065c-4.727,28.362,11.348,56.725,48.223,85.087c2.45,0,4.9,0,7.351,0
		C90.339,67.214,72.326,37.276,77.49,7.338C77.033,8.914,76.521,10.49,75.955,12.065z"/>
	<linearGradient id="SVGID_3_" gradientUnits="userSpaceOnUse" x1="77.2832" y1="38.3985" x2="106.3156" y2="85.576">
		<stop  offset="0.0055" style="stop-color:#EC1C24"/>
		<stop  offset="0.1868" style="stop-color:#FAAF3B"/>
		<stop  offset="0.2269" style="stop-color:#F9A438"/>
		<stop  offset="0.3825" style="stop-color:#F47C2E"/>
		<stop  offset="0.5064" style="stop-color:#F16428"/>
		<stop  offset="0.5824" style="stop-color:#F05B26"/>
		<stop  offset="1" style="stop-color:#380000"/>
	</linearGradient>
	<path style="fill:url(#SVGID_3_);" d="M72.364,19.401c-4.824,25.917,7.72,51.834,37.631,77.751c2.45,0,4.9,0,7.351,0
		C83.534,69.66,69.268,42.168,74.547,14.675C73.874,16.25,73.146,17.826,72.364,19.401z"/>
	<linearGradient id="SVGID_4_" gradientUnits="userSpaceOnUse" x1="69.9299" y1="41.8131" x2="97.8418" y2="87.17">
		<stop  offset="0.0055" style="stop-color:#EC1C24"/>
		<stop  offset="0.1868" style="stop-color:#FAAF3B"/>
		<stop  offset="0.2269" style="stop-color:#F9A438"/>
		<stop  offset="0.3825" style="stop-color:#F47C2E"/>
		<stop  offset="0.5064" style="stop-color:#F16428"/>
		<stop  offset="0.5824" style="stop-color:#F05B26"/>
		<stop  offset="1" style="stop-color:#380000"/>
	</linearGradient>
	<path style="fill:url(#SVGID_4_);" d="M67.56,26.734C62.73,50.207,72.148,73.68,95.813,97.152c2.448,0,4.897,0,7.345,0
		c-27.146-25.048-38.07-50.096-32.77-75.145C69.5,23.584,68.558,25.159,67.56,26.734z"/>
	<linearGradient id="SVGID_5_" gradientUnits="userSpaceOnUse" x1="61.5304" y1="45.5239" x2="88.3227" y2="89.0615">
		<stop  offset="0.0055" style="stop-color:#EC1C24"/>
		<stop  offset="0.1868" style="stop-color:#FAAF3B"/>
		<stop  offset="0.2269" style="stop-color:#F9A438"/>
		<stop  offset="0.3825" style="stop-color:#F47C2E"/>
		<stop  offset="0.5064" style="stop-color:#F16428"/>
		<stop  offset="0.5824" style="stop-color:#F05B26"/>
		<stop  offset="1" style="stop-color:#380000"/>
	</linearGradient>
	<path style="fill:url(#SVGID_5_);" d="M61.539,34.07C56.803,55.098,63.5,76.125,81.63,97.152c2.45,0,4.9,0,7.351,0
		C67.779,74.55,59.791,51.948,65.014,29.346C63.911,30.921,62.753,32.496,61.539,34.07z"/>
	<linearGradient id="SVGID_6_" gradientUnits="userSpaceOnUse" x1="52.0874" y1="49.5188" x2="77.758" y2="91.2337">
		<stop  offset="0.0055" style="stop-color:#EC1C24"/>
		<stop  offset="0.1868" style="stop-color:#FAAF3B"/>
		<stop  offset="0.2269" style="stop-color:#F9A438"/>
		<stop  offset="0.3825" style="stop-color:#F47C2E"/>
		<stop  offset="0.5064" style="stop-color:#F16428"/>
		<stop  offset="0.5824" style="stop-color:#F05B26"/>
		<stop  offset="1" style="stop-color:#380000"/>
	</linearGradient>
	<path style="fill:url(#SVGID_6_);" d="M54.305,41.409c-4.547,18.581-0.166,37.162,13.144,55.743c2.448,0,4.896,0,7.344,0
		c-15.96-20.159-21.414-40.317-16.36-60.476C57.111,38.254,55.735,39.832,54.305,41.409z"/>
	<linearGradient id="SVGID_7_" gradientUnits="userSpaceOnUse" x1="41.6187" y1="53.799" x2="66.1683" y2="93.6921">
		<stop  offset="0.0055" style="stop-color:#EC1C24"/>
		<stop  offset="0.1868" style="stop-color:#FAAF3B"/>
		<stop  offset="0.2269" style="stop-color:#F9A438"/>
		<stop  offset="0.3825" style="stop-color:#F47C2E"/>
		<stop  offset="0.5064" style="stop-color:#F16428"/>
		<stop  offset="0.5824" style="stop-color:#F05B26"/>
		<stop  offset="1" style="stop-color:#380000"/>
	</linearGradient>
	<path style="fill:url(#SVGID_7_);" d="M45.859,48.742c-4.264,16.137-1.797,32.273,7.405,48.41c2.45,0,4.899,0,7.35,0
		c-11.44-17.712-14.769-35.425-9.983-53.137C49.096,45.591,47.505,47.167,45.859,48.742z"/>
</g>
<g>
	<path d="M29.805,127.603c-0.196,0-0.275,0.079-0.354,0.315l-2.125,5.627c-0.394,0.984-0.59,1.929-0.59,2.4
		c0,0.709,0.354,1.221,1.574,1.221h0.59c0.473,0,0.59,0.078,0.59,0.314c0,0.314-0.236,0.393-0.669,0.393
		c-1.259,0-2.951-0.118-4.171-0.118c-0.434,0-2.598,0.118-4.645,0.118c-0.511,0-0.747-0.079-0.747-0.393
		c0-0.236,0.157-0.314,0.472-0.314c0.355,0,0.906-0.04,1.221-0.079c1.81-0.236,2.558-1.574,3.345-3.542l9.878-24.713
		c0.472-1.142,0.708-1.574,1.102-1.574c0.354,0,0.59,0.354,0.983,1.259c0.944,2.164,7.241,18.22,9.76,24.202
		c1.495,3.542,2.637,4.093,3.463,4.289c0.591,0.118,1.181,0.158,1.653,0.158c0.314,0,0.512,0.039,0.512,0.314
		c0,0.314-0.355,0.393-1.81,0.393c-1.417,0-4.289,0-7.438-0.079c-0.709-0.039-1.182-0.039-1.182-0.314
		c0-0.236,0.158-0.314,0.552-0.354c0.275-0.078,0.551-0.433,0.354-0.905l-3.148-8.343c-0.079-0.196-0.197-0.275-0.394-0.275H29.805z
		 M37.833,125.636c0.196,0,0.236-0.118,0.196-0.236l-3.541-9.72c-0.039-0.157-0.078-0.354-0.197-0.354
		c-0.117,0-0.196,0.197-0.236,0.354l-3.619,9.68c-0.04,0.158,0,0.276,0.156,0.276H37.833z"/>
	<path d="M66.998,119.536c0-5.982,0-7.084-0.078-8.343c-0.079-1.338-0.395-1.967-1.692-2.243c-0.316-0.079-0.983-0.118-1.535-0.118
		c-0.433,0-0.669-0.079-0.669-0.354c0-0.275,0.275-0.354,0.865-0.354c2.086,0,4.565,0.118,5.393,0.118
		c1.338,0,4.328-0.118,5.549-0.118c2.479,0,5.115,0.236,7.24,1.692c1.102,0.748,2.676,2.755,2.676,5.392
		c0,2.912-1.22,5.588-5.194,8.815c3.502,4.408,6.218,7.91,8.539,10.35c2.204,2.283,3.817,2.559,4.408,2.677
		c0.433,0.078,0.786,0.118,1.102,0.118c0.314,0,0.472,0.117,0.472,0.314c0,0.314-0.275,0.393-0.747,0.393h-3.738
		c-2.204,0-3.188-0.197-4.211-0.748c-1.692-0.905-3.188-2.755-5.392-5.784c-1.574-2.165-3.384-4.841-3.896-5.431
		c-0.196-0.236-0.433-0.275-0.708-0.275l-3.424-0.079c-0.197,0-0.315,0.079-0.315,0.314v0.552c0,3.659,0,6.769,0.196,8.421
		c0.119,1.142,0.355,2.007,1.535,2.164c0.59,0.079,1.457,0.158,1.929,0.158c0.314,0,0.472,0.117,0.472,0.314
		c0,0.275-0.275,0.393-0.787,0.393c-2.282,0-5.193-0.118-5.784-0.118c-0.748,0-3.228,0.118-4.802,0.118
		c-0.512,0-0.787-0.118-0.787-0.393c0-0.197,0.158-0.314,0.631-0.314c0.59,0,1.063-0.079,1.416-0.158
		c0.787-0.157,0.984-1.022,1.141-2.164c0.197-1.652,0.197-4.762,0.197-8.382V119.536z M71.642,122.645
		c0,0.433,0.079,0.59,0.354,0.708c0.826,0.275,2.007,0.394,2.99,0.394c1.574,0,2.086-0.157,2.795-0.669
		c1.18-0.865,2.321-2.676,2.321-5.902c0-5.588-3.699-7.202-6.021-7.202c-0.984,0-1.692,0.039-2.086,0.157
		c-0.275,0.079-0.354,0.236-0.354,0.551V122.645z"/>
	<path d="M107.93,119.536c0-5.982,0-7.084-0.079-8.343c-0.079-1.338-0.394-1.967-1.692-2.243c-0.314-0.079-0.983-0.118-1.534-0.118
		c-0.434,0-0.669-0.079-0.669-0.354c0-0.275,0.275-0.354,0.865-0.354c2.086,0,4.565,0.118,5.667,0.118
		c1.22,0,3.699-0.118,6.061-0.118c4.919,0,11.49,0,15.78,4.486c1.968,2.046,3.817,5.312,3.817,9.996
		c0,4.958-2.086,8.736-4.29,10.979c-1.81,1.849-5.902,4.643-13.183,4.643c-1.417,0-3.03-0.118-4.525-0.236
		c-1.496-0.118-2.873-0.236-3.856-0.236c-0.434,0-1.299,0-2.243,0.039c-0.905,0-1.929,0.079-2.716,0.079
		c-0.512,0-0.787-0.118-0.787-0.393c0-0.197,0.157-0.314,0.63-0.314c0.59,0,1.063-0.079,1.417-0.158
		c0.787-0.157,0.983-1.022,1.141-2.164c0.197-1.652,0.197-4.762,0.197-8.382V119.536z M112.849,123.864
		c0,4.172,0.039,7.202,0.078,7.949c0.04,0.984,0.118,2.558,0.434,2.991c0.512,0.747,2.046,1.574,5.155,1.574
		c4.014,0,6.689-0.787,9.051-2.834c2.519-2.164,3.306-5.745,3.306-9.799c0-4.997-2.086-8.224-3.778-9.838
		c-3.62-3.463-8.106-3.935-11.176-3.935c-0.787,0-2.243,0.118-2.558,0.275c-0.354,0.157-0.473,0.354-0.473,0.787
		c-0.039,1.338-0.039,4.762-0.039,7.871V123.864z"/>
	<path d="M155.592,119.536c0-5.982,0-7.084-0.079-8.343c-0.079-1.338-0.472-2.007-1.338-2.204c-0.433-0.118-0.944-0.157-1.417-0.157
		c-0.393,0-0.629-0.079-0.629-0.393c0-0.236,0.314-0.315,0.944-0.315c1.495,0,3.975,0.118,5.115,0.118
		c0.984,0,3.306-0.118,4.802-0.118c0.511,0,0.826,0.079,0.826,0.315c0,0.314-0.236,0.393-0.63,0.393
		c-0.393,0-0.708,0.039-1.181,0.118c-1.063,0.197-1.377,0.866-1.456,2.243c-0.079,1.259-0.079,2.361-0.079,8.343v6.926
		c0,3.817,0,6.926,0.158,8.618c0.118,1.063,0.394,1.77,1.574,1.928c0.551,0.079,1.416,0.158,2.007,0.158
		c0.433,0,0.629,0.117,0.629,0.314c0,0.275-0.314,0.393-0.747,0.393c-2.598,0-5.076-0.118-6.139-0.118
		c-0.905,0-3.385,0.118-4.959,0.118c-0.512,0-0.787-0.118-0.787-0.393c0-0.197,0.157-0.314,0.63-0.314
		c0.59,0,1.063-0.079,1.417-0.158c0.787-0.157,1.022-0.826,1.141-1.967c0.197-1.653,0.197-4.762,0.197-8.579V119.536z"/>
</g>
<g>
	<path style="fill:#C0272D;" d="M2.143,151.96c-0.04,0-0.056,0.016-0.071,0.063l-0.433,1.096c-0.079,0.2-0.119,0.392-0.119,0.487
		c0,0.145,0.071,0.248,0.319,0.248h0.12c0.096,0,0.12,0.017,0.12,0.064c0,0.063-0.048,0.08-0.136,0.08
		c-0.256,0-0.6-0.024-0.848-0.024c-0.088,0-0.528,0.024-0.943,0.024c-0.104,0-0.152-0.017-0.152-0.08
		c0-0.048,0.032-0.064,0.096-0.064c0.072,0,0.185-0.008,0.248-0.016c0.368-0.048,0.52-0.32,0.68-0.72l2.007-4.957
		c0.096-0.232,0.144-0.32,0.224-0.32c0.072,0,0.12,0.072,0.2,0.256c0.192,0.44,1.472,3.638,1.983,4.854
		c0.304,0.72,0.535,0.831,0.703,0.871c0.12,0.024,0.24,0.032,0.336,0.032c0.063,0,0.104,0.008,0.104,0.064
		c0,0.063-0.071,0.08-0.367,0.08c-0.288,0-0.872,0-1.512-0.017c-0.144-0.008-0.239-0.008-0.239-0.063
		c0-0.048,0.031-0.064,0.111-0.072c0.057-0.016,0.112-0.088,0.072-0.184l-0.64-1.647c-0.016-0.04-0.04-0.056-0.08-0.056H2.143z
		 M3.773,151.56c0.04,0,0.049-0.023,0.04-0.048l-0.719-1.967c-0.009-0.032-0.017-0.072-0.04-0.072c-0.024,0-0.04,0.04-0.049,0.072
		l-0.735,1.959c-0.008,0.032,0,0.056,0.032,0.056H3.773z"/>
	<path style="fill:#C0272D;" d="M9.206,153.566c0.72,0,0.968-0.144,1.088-0.352c0.056-0.104,0.104-0.216,0.128-0.312
		c0.016-0.072,0.031-0.112,0.08-0.112c0.056,0,0.071,0.048,0.071,0.208c0,0.224-0.088,0.664-0.136,0.832
		c-0.04,0.119-0.088,0.176-0.216,0.176c-1.175,0-2.366-0.032-3.79-0.032c-0.08,0-0.12-0.024-0.12-0.072
		c0-0.04,0.009-0.08,0.088-0.199c0.992-1.495,2.016-3.03,2.959-4.43H8.031c-0.36,0-0.775,0-1,0.12
		c-0.231,0.128-0.359,0.359-0.376,0.52c-0.016,0.096-0.048,0.12-0.088,0.12c-0.048,0-0.071-0.032-0.071-0.112
		c0-0.16,0.104-0.775,0.144-0.983c0.008-0.096,0.04-0.128,0.08-0.128c0.063,0,0.104,0.04,0.28,0.048
		c0.671,0.024,1.007,0.016,1.295,0.016h2.167c0.071,0,0.12,0.024,0.12,0.057c0,0.056-0.017,0.08-0.04,0.128
		c-0.976,1.527-2.031,3.078-3.022,4.509H9.206z"/>
	<path style="fill:#C0272D;" d="M14.006,153.566c0.72,0,0.968-0.144,1.088-0.352c0.056-0.104,0.104-0.216,0.128-0.312
		c0.016-0.072,0.032-0.112,0.08-0.112c0.056,0,0.071,0.048,0.071,0.208c0,0.224-0.088,0.664-0.136,0.832
		c-0.04,0.119-0.088,0.176-0.216,0.176c-1.176,0-2.366-0.032-3.79-0.032c-0.08,0-0.12-0.024-0.12-0.072
		c0-0.04,0.009-0.08,0.088-0.199c0.992-1.495,2.016-3.03,2.959-4.43h-1.327c-0.36,0-0.776,0-1,0.12
		c-0.231,0.128-0.359,0.359-0.376,0.52c-0.016,0.096-0.048,0.12-0.088,0.12c-0.048,0-0.071-0.032-0.071-0.112
		c0-0.16,0.104-0.775,0.144-0.983c0.008-0.096,0.04-0.128,0.08-0.128c0.063,0,0.104,0.04,0.279,0.048
		c0.672,0.024,1.008,0.016,1.296,0.016h2.167c0.071,0,0.119,0.024,0.119,0.057c0,0.056-0.016,0.08-0.039,0.128
		c-0.976,1.527-2.031,3.078-3.022,4.509H14.006z"/>
	<path style="fill:#C0272D;" d="M19.023,150.272c0-1.215,0-1.439-0.017-1.695c-0.016-0.271-0.079-0.399-0.344-0.455
		c-0.063-0.017-0.199-0.024-0.312-0.024c-0.088,0-0.136-0.016-0.136-0.071c0-0.057,0.056-0.072,0.176-0.072
		c0.424,0,0.928,0.023,1.096,0.023c0.271,0,0.879-0.023,1.127-0.023c0.504,0,1.039,0.048,1.472,0.344
		c0.224,0.151,0.543,0.56,0.543,1.096c0,0.591-0.248,1.135-1.055,1.791c0.711,0.896,1.263,1.606,1.734,2.103
		c0.448,0.464,0.775,0.52,0.896,0.544c0.088,0.016,0.16,0.023,0.224,0.023c0.064,0,0.097,0.024,0.097,0.064
		c0,0.063-0.057,0.08-0.152,0.08h-0.76c-0.447,0-0.647-0.04-0.855-0.152c-0.344-0.184-0.647-0.56-1.095-1.176
		c-0.32-0.439-0.688-0.983-0.792-1.103c-0.04-0.049-0.088-0.057-0.144-0.057l-0.696-0.016c-0.04,0-0.063,0.016-0.063,0.063v0.112
		c0,0.743,0,1.375,0.04,1.711c0.023,0.232,0.071,0.408,0.312,0.439c0.12,0.017,0.296,0.032,0.392,0.032
		c0.064,0,0.097,0.024,0.097,0.064c0,0.056-0.057,0.08-0.16,0.08c-0.464,0-1.056-0.024-1.176-0.024
		c-0.151,0-0.655,0.024-0.976,0.024c-0.104,0-0.159-0.024-0.159-0.08c0-0.04,0.031-0.064,0.128-0.064
		c0.119,0,0.216-0.016,0.287-0.032c0.16-0.031,0.2-0.207,0.232-0.439c0.04-0.336,0.04-0.968,0.04-1.703V150.272z M19.967,150.904
		c0,0.088,0.016,0.12,0.072,0.144c0.168,0.057,0.407,0.08,0.607,0.08c0.319,0,0.424-0.031,0.567-0.136
		c0.24-0.176,0.472-0.544,0.472-1.199c0-1.136-0.751-1.463-1.223-1.463c-0.2,0-0.345,0.008-0.424,0.031
		c-0.057,0.017-0.072,0.048-0.072,0.112V150.904z"/>
	<path style="fill:#C0272D;" d="M24.703,150.824c0-1.031,0-1.224-0.008-1.439c-0.017-0.231-0.08-0.304-0.304-0.367
		c-0.057-0.017-0.176-0.024-0.28-0.024c-0.072,0-0.12-0.023-0.12-0.072c0-0.048,0.057-0.063,0.16-0.063
		c0.368,0,0.815,0.016,1.016,0.016c0.224,0,1.783,0.009,1.919,0c0.128-0.008,0.24-0.031,0.296-0.04
		c0.04-0.008,0.08-0.031,0.111-0.031c0.04,0,0.049,0.031,0.049,0.063c0,0.048-0.04,0.128-0.057,0.44
		c-0.008,0.071-0.023,0.367-0.04,0.447c-0.008,0.032-0.023,0.112-0.08,0.112c-0.048,0-0.056-0.032-0.056-0.088
		c0-0.049-0.008-0.168-0.048-0.248c-0.056-0.12-0.112-0.216-0.464-0.248c-0.12-0.016-0.959-0.032-1.104-0.032
		c-0.032,0-0.048,0.024-0.048,0.064v1.679c0,0.04,0.008,0.072,0.048,0.072c0.16,0,1.071,0,1.231-0.017
		c0.168-0.016,0.264-0.04,0.336-0.104c0.056-0.048,0.08-0.088,0.112-0.088c0.031,0,0.056,0.032,0.056,0.072
		c0,0.039-0.016,0.151-0.056,0.495c-0.017,0.136-0.032,0.408-0.032,0.456c0,0.056-0.008,0.151-0.072,0.151
		c-0.048,0-0.063-0.023-0.063-0.056c-0.009-0.072-0.009-0.16-0.024-0.248c-0.04-0.136-0.128-0.239-0.392-0.264
		c-0.128-0.016-0.928-0.032-1.104-0.032c-0.032,0-0.04,0.032-0.04,0.072v0.544c0,0.231-0.008,0.808,0,1.007
		c0.016,0.464,0.232,0.568,0.951,0.568c0.185,0,0.48-0.008,0.664-0.088c0.176-0.08,0.256-0.225,0.304-0.504
		c0.017-0.072,0.032-0.104,0.08-0.104c0.056,0,0.063,0.088,0.063,0.16c0,0.152-0.056,0.616-0.096,0.752
		c-0.048,0.176-0.111,0.176-0.376,0.176c-0.527,0-0.951-0.008-1.295-0.024c-0.344-0.008-0.607-0.016-0.815-0.016
		c-0.08,0-0.232,0.008-0.399,0.008c-0.168,0.008-0.345,0.017-0.488,0.017c-0.088,0-0.136-0.024-0.136-0.072
		c0-0.032,0.023-0.072,0.112-0.072c0.104,0,0.184-0.008,0.247-0.023c0.145-0.032,0.185-0.16,0.208-0.36
		c0.032-0.288,0.032-0.823,0.032-1.447V150.824z"/>
	<path style="fill:#C0272D;" d="M29.414,152.279c-0.04,0-0.048,0.008-0.063,0.048l-0.376,0.92c-0.072,0.168-0.104,0.336-0.104,0.416
		c0,0.119,0.064,0.191,0.28,0.191h0.104c0.088,0,0.104,0.032,0.104,0.072c0,0.056-0.04,0.072-0.112,0.072
		c-0.231,0-0.56-0.024-0.783-0.024c-0.072,0-0.448,0.024-0.815,0.024c-0.088,0-0.128-0.017-0.128-0.072
		c0-0.04,0.023-0.072,0.08-0.072c0.063,0,0.144-0.008,0.207-0.008c0.32-0.048,0.44-0.256,0.584-0.6l1.839-4.246
		c0.08-0.191,0.136-0.271,0.208-0.271c0.104,0,0.136,0.064,0.208,0.216c0.168,0.376,1.343,3.126,1.791,4.158
		c0.271,0.615,0.472,0.703,0.6,0.728c0.104,0.016,0.184,0.023,0.264,0.023c0.064,0,0.097,0.024,0.097,0.072
		c0,0.056-0.04,0.072-0.305,0.072c-0.247,0-0.759,0-1.351-0.017c-0.128-0.008-0.208-0.008-0.208-0.056
		c0-0.04,0.016-0.064,0.088-0.072c0.048-0.008,0.096-0.072,0.063-0.151l-0.543-1.376c-0.017-0.04-0.04-0.048-0.072-0.048H29.414z
		 M30.917,151.903c0.032,0,0.04-0.016,0.032-0.039l-0.663-1.703c-0.009-0.024-0.017-0.064-0.032-0.064
		c-0.024,0-0.032,0.04-0.04,0.064l-0.68,1.694c-0.016,0.032,0,0.048,0.024,0.048H30.917z"/>
	<path style="fill:#C0272D;" d="M34.91,152.023c0,0.872,0,1.304,0.152,1.432c0.119,0.104,0.392,0.144,0.936,0.144
		c0.375,0,0.647-0.008,0.823-0.191c0.088-0.088,0.16-0.28,0.176-0.408c0.008-0.063,0.024-0.104,0.08-0.104
		c0.048,0,0.063,0.071,0.063,0.151s-0.048,0.584-0.104,0.784c-0.048,0.151-0.08,0.184-0.447,0.184c-0.504,0-0.912-0.008-1.264-0.024
		c-0.352-0.008-0.647-0.016-0.936-0.016c-0.08,0-0.232,0.008-0.399,0.008c-0.168,0.008-0.345,0.017-0.488,0.017
		c-0.088,0-0.136-0.024-0.136-0.072c0-0.032,0.023-0.072,0.112-0.072c0.104,0,0.184-0.008,0.247-0.023
		c0.145-0.032,0.185-0.16,0.208-0.36c0.032-0.288,0.032-0.823,0.032-1.447v-1.199c0-1.031,0-1.224-0.008-1.439
		c-0.017-0.231-0.08-0.304-0.304-0.367c-0.057-0.017-0.145-0.024-0.232-0.024c-0.08,0-0.12-0.023-0.12-0.072
		c0-0.048,0.049-0.063,0.152-0.063c0.328,0,0.775,0.016,0.968,0.016c0.168,0,0.743-0.016,1.015-0.016
		c0.104,0,0.152,0.016,0.152,0.063c0,0.049-0.04,0.072-0.128,0.072c-0.08,0-0.191,0.008-0.271,0.024
		c-0.192,0.032-0.248,0.128-0.265,0.367c-0.016,0.216-0.016,0.408-0.016,1.439V152.023z"/>
	<path style="fill:#C0272D;" d="M40.543,150.272c0-1.215,0-1.439-0.017-1.695c-0.016-0.271-0.079-0.399-0.344-0.455
		c-0.063-0.017-0.199-0.024-0.312-0.024c-0.088,0-0.136-0.016-0.136-0.071c0-0.057,0.056-0.072,0.176-0.072
		c0.216,0,0.447,0.008,0.647,0.008c0.208,0.008,0.392,0.016,0.504,0.016c0.256,0,1.847,0,1.999-0.008
		c0.151-0.016,0.279-0.032,0.344-0.048c0.04-0.008,0.088-0.032,0.128-0.032s0.048,0.032,0.048,0.072c0,0.056-0.04,0.152-0.063,0.52
		c-0.009,0.08-0.024,0.432-0.04,0.528c-0.009,0.04-0.024,0.088-0.08,0.088c-0.057,0-0.072-0.04-0.072-0.112
		c0-0.056-0.008-0.191-0.048-0.288c-0.056-0.144-0.136-0.239-0.536-0.288c-0.136-0.016-0.976-0.031-1.135-0.031
		c-0.04,0-0.057,0.023-0.057,0.08v2.022c0,0.056,0.009,0.088,0.057,0.088c0.176,0,1.095,0,1.279-0.016
		c0.191-0.017,0.312-0.04,0.384-0.12c0.056-0.064,0.088-0.104,0.128-0.104c0.031,0,0.056,0.016,0.056,0.063
		s-0.032,0.176-0.064,0.584c-0.008,0.159-0.031,0.479-0.031,0.535c0,0.064,0,0.152-0.072,0.152c-0.056,0-0.072-0.032-0.072-0.072
		c-0.008-0.08-0.008-0.184-0.031-0.288c-0.04-0.159-0.152-0.279-0.448-0.312c-0.151-0.016-0.943-0.024-1.136-0.024
		c-0.039,0-0.048,0.032-0.048,0.08v0.632c0,0.272-0.008,1.008,0,1.239c0.017,0.552,0.145,0.672,0.96,0.672
		c0.208,0,0.544,0,0.752-0.096c0.207-0.096,0.304-0.264,0.359-0.592c0.016-0.088,0.032-0.12,0.088-0.12
		c0.064,0,0.064,0.064,0.064,0.144c0,0.185-0.064,0.729-0.104,0.888c-0.056,0.208-0.128,0.208-0.432,0.208
		c-0.6,0-1.039-0.016-1.384-0.023c-0.344-0.017-0.591-0.024-0.831-0.024c-0.088,0-0.264,0-0.456,0.008
		c-0.184,0-0.392,0.017-0.552,0.017c-0.104,0-0.159-0.024-0.159-0.08c0-0.04,0.031-0.064,0.128-0.064
		c0.119,0,0.216-0.016,0.287-0.032c0.16-0.031,0.2-0.207,0.232-0.439c0.04-0.336,0.04-0.968,0.04-1.703V150.272z"/>
	<path style="fill:#C0272D;" d="M44.854,153.911c-0.112-0.049-0.136-0.08-0.136-0.232c0-0.368,0.032-0.791,0.04-0.903
		c0-0.104,0.032-0.176,0.088-0.176c0.063,0,0.071,0.063,0.071,0.111c0,0.088,0.024,0.232,0.064,0.353
		c0.152,0.503,0.68,0.671,1.119,0.671c0.607,0,0.976-0.384,0.976-0.863c0-0.296-0.072-0.592-0.695-0.959l-0.408-0.24
		c-0.831-0.487-1.104-0.943-1.104-1.543c0-0.832,0.8-1.367,1.775-1.367c0.456,0,0.815,0.063,0.999,0.111
		c0.064,0.017,0.097,0.04,0.097,0.088c0,0.089-0.024,0.28-0.024,0.816c0,0.144-0.032,0.216-0.088,0.216
		c-0.048,0-0.072-0.04-0.072-0.12c0-0.064-0.031-0.272-0.184-0.448c-0.104-0.128-0.328-0.319-0.783-0.319
		c-0.504,0-0.96,0.264-0.96,0.728c0,0.304,0.112,0.544,0.744,0.896l0.287,0.16c0.928,0.512,1.216,1.031,1.216,1.646
		c0,0.504-0.192,0.912-0.704,1.271c-0.335,0.24-0.799,0.28-1.175,0.28C45.59,154.087,45.158,154.047,44.854,153.911z"/>
	<path style="fill:#C0272D;" d="M50.294,149.273l-1.048,0.023c-0.407,0.009-0.575,0.057-0.68,0.208
		c-0.071,0.096-0.104,0.184-0.119,0.232c-0.017,0.056-0.032,0.088-0.08,0.088s-0.064-0.04-0.064-0.112
		c0-0.112,0.136-0.768,0.152-0.823c0.016-0.088,0.04-0.128,0.08-0.128c0.056,0,0.128,0.056,0.304,0.08
		c0.208,0.023,0.472,0.031,0.703,0.031h2.854c0.225,0,0.376-0.016,0.48-0.031c0.111-0.017,0.167-0.032,0.191-0.032
		c0.048,0,0.056,0.04,0.056,0.144c0,0.145-0.016,0.647-0.016,0.824c-0.008,0.071-0.024,0.111-0.064,0.111
		c-0.056,0-0.071-0.032-0.079-0.136l-0.009-0.072c-0.016-0.176-0.199-0.384-0.831-0.392l-0.888-0.016v2.75
		c0,0.624,0.008,1.159,0.04,1.455c0.024,0.192,0.064,0.32,0.271,0.353c0.097,0.016,0.256,0.023,0.36,0.023
		c0.08,0,0.111,0.04,0.111,0.072c0,0.048-0.056,0.072-0.136,0.072c-0.464,0-0.936-0.024-1.135-0.024c-0.16,0-0.64,0.024-0.92,0.024
		c-0.088,0-0.136-0.024-0.136-0.072c0-0.032,0.023-0.072,0.112-0.072c0.104,0,0.191-0.008,0.247-0.023
		c0.145-0.032,0.185-0.16,0.208-0.36c0.032-0.288,0.032-0.823,0.032-1.447V149.273z"/>
	<path style="fill:#C0272D;" d="M54.046,152.279c-0.04,0-0.048,0.008-0.063,0.048l-0.376,0.92c-0.072,0.168-0.104,0.336-0.104,0.416
		c0,0.119,0.064,0.191,0.28,0.191h0.104c0.088,0,0.104,0.032,0.104,0.072c0,0.056-0.04,0.072-0.112,0.072
		c-0.231,0-0.56-0.024-0.783-0.024c-0.072,0-0.448,0.024-0.815,0.024c-0.088,0-0.128-0.017-0.128-0.072
		c0-0.04,0.023-0.072,0.08-0.072c0.063,0,0.144-0.008,0.207-0.008c0.32-0.048,0.44-0.256,0.584-0.6l1.839-4.246
		c0.08-0.191,0.136-0.271,0.208-0.271c0.104,0,0.136,0.064,0.208,0.216c0.168,0.376,1.344,3.126,1.791,4.158
		c0.271,0.615,0.472,0.703,0.6,0.728c0.104,0.016,0.184,0.023,0.264,0.023c0.064,0,0.096,0.024,0.096,0.072
		c0,0.056-0.039,0.072-0.304,0.072c-0.247,0-0.759,0-1.351-0.017c-0.128-0.008-0.208-0.008-0.208-0.056
		c0-0.04,0.016-0.064,0.088-0.072c0.048-0.008,0.096-0.072,0.063-0.151l-0.543-1.376c-0.017-0.04-0.04-0.048-0.072-0.048H54.046z
		 M55.549,151.903c0.032,0,0.04-0.016,0.032-0.039l-0.663-1.703c-0.009-0.024-0.017-0.064-0.032-0.064
		c-0.024,0-0.032,0.04-0.04,0.064l-0.68,1.694c-0.016,0.032,0,0.048,0.023,0.048H55.549z"/>
	<path style="fill:#C0272D;" d="M59.014,149.273l-1.048,0.023c-0.407,0.009-0.575,0.057-0.68,0.208
		c-0.071,0.096-0.104,0.184-0.119,0.232c-0.017,0.056-0.032,0.088-0.08,0.088s-0.064-0.04-0.064-0.112
		c0-0.112,0.136-0.768,0.152-0.823c0.016-0.088,0.04-0.128,0.08-0.128c0.056,0,0.128,0.056,0.304,0.08
		c0.208,0.023,0.472,0.031,0.703,0.031h2.854c0.224,0,0.376-0.016,0.479-0.031c0.112-0.017,0.168-0.032,0.192-0.032
		c0.048,0,0.056,0.04,0.056,0.144c0,0.145-0.016,0.647-0.016,0.824c-0.008,0.071-0.024,0.111-0.064,0.111
		c-0.056,0-0.071-0.032-0.079-0.136l-0.009-0.072c-0.016-0.176-0.199-0.384-0.831-0.392l-0.888-0.016v2.75
		c0,0.624,0.008,1.159,0.04,1.455c0.024,0.192,0.063,0.32,0.271,0.353c0.097,0.016,0.256,0.023,0.36,0.023
		c0.08,0,0.111,0.04,0.111,0.072c0,0.048-0.056,0.072-0.136,0.072c-0.464,0-0.936-0.024-1.135-0.024c-0.16,0-0.64,0.024-0.92,0.024
		c-0.088,0-0.136-0.024-0.136-0.072c0-0.032,0.023-0.072,0.111-0.072c0.104,0,0.192-0.008,0.248-0.023
		c0.145-0.032,0.185-0.16,0.208-0.36c0.032-0.288,0.032-0.823,0.032-1.447V149.273z"/>
	<path style="fill:#C0272D;" d="M62.942,150.824c0-1.031,0-1.224-0.008-1.439c-0.017-0.231-0.08-0.304-0.304-0.367
		c-0.057-0.017-0.176-0.024-0.28-0.024c-0.072,0-0.12-0.023-0.12-0.072c0-0.048,0.057-0.063,0.16-0.063
		c0.368,0,0.815,0.016,1.016,0.016c0.224,0,1.783,0.009,1.919,0c0.128-0.008,0.239-0.031,0.296-0.04
		c0.04-0.008,0.08-0.031,0.111-0.031c0.04,0,0.049,0.031,0.049,0.063c0,0.048-0.04,0.128-0.057,0.44
		c-0.008,0.071-0.023,0.367-0.04,0.447c-0.008,0.032-0.023,0.112-0.08,0.112c-0.048,0-0.056-0.032-0.056-0.088
		c0-0.049-0.008-0.168-0.048-0.248c-0.056-0.12-0.112-0.216-0.464-0.248c-0.12-0.016-0.959-0.032-1.104-0.032
		c-0.031,0-0.048,0.024-0.048,0.064v1.679c0,0.04,0.008,0.072,0.048,0.072c0.16,0,1.071,0,1.231-0.017
		c0.168-0.016,0.264-0.04,0.336-0.104c0.056-0.048,0.08-0.088,0.112-0.088c0.031,0,0.056,0.032,0.056,0.072
		c0,0.039-0.016,0.151-0.056,0.495c-0.017,0.136-0.032,0.408-0.032,0.456c0,0.056-0.008,0.151-0.072,0.151
		c-0.048,0-0.063-0.023-0.063-0.056c-0.008-0.072-0.008-0.16-0.024-0.248c-0.04-0.136-0.128-0.239-0.392-0.264
		c-0.128-0.016-0.928-0.032-1.104-0.032c-0.032,0-0.04,0.032-0.04,0.072v0.544c0,0.231-0.008,0.808,0,1.007
		c0.017,0.464,0.232,0.568,0.951,0.568c0.185,0,0.48-0.008,0.664-0.088c0.176-0.08,0.256-0.225,0.304-0.504
		c0.016-0.072,0.032-0.104,0.08-0.104c0.056,0,0.064,0.088,0.064,0.16c0,0.152-0.057,0.616-0.097,0.752
		c-0.048,0.176-0.111,0.176-0.376,0.176c-0.527,0-0.951-0.008-1.295-0.024c-0.344-0.008-0.607-0.016-0.815-0.016
		c-0.08,0-0.231,0.008-0.399,0.008c-0.168,0.008-0.344,0.017-0.488,0.017c-0.088,0-0.136-0.024-0.136-0.072
		c0-0.032,0.024-0.072,0.112-0.072c0.104,0,0.184-0.008,0.247-0.023c0.145-0.032,0.185-0.16,0.208-0.36
		c0.032-0.288,0.032-0.823,0.032-1.447V150.824z"/>
	<path style="fill:#C0272D;" d="M67.511,150.272c0-1.215,0-1.439-0.017-1.695c-0.016-0.271-0.08-0.399-0.344-0.455
		c-0.063-0.017-0.199-0.024-0.312-0.024c-0.088,0-0.136-0.016-0.136-0.071c0-0.057,0.056-0.072,0.176-0.072
		c0.424,0,0.928,0.023,1.151,0.023c0.248,0,0.752-0.023,1.231-0.023c0.999,0,2.335,0,3.206,0.911
		c0.399,0.416,0.775,1.079,0.775,2.031c0,1.007-0.424,1.774-0.871,2.23c-0.368,0.376-1.199,0.943-2.679,0.943
		c-0.288,0-0.615-0.023-0.92-0.048c-0.304-0.023-0.583-0.048-0.783-0.048c-0.088,0-0.264,0-0.456,0.008
		c-0.184,0-0.392,0.017-0.552,0.017c-0.104,0-0.159-0.024-0.159-0.08c0-0.04,0.031-0.064,0.128-0.064
		c0.119,0,0.216-0.016,0.287-0.032c0.16-0.031,0.2-0.207,0.232-0.439c0.04-0.336,0.04-0.968,0.04-1.703V150.272z M68.51,151.152
		c0,0.848,0.008,1.463,0.017,1.615c0.008,0.199,0.023,0.52,0.088,0.607c0.104,0.151,0.415,0.319,1.047,0.319
		c0.815,0,1.359-0.159,1.839-0.575c0.512-0.439,0.672-1.167,0.672-1.991c0-1.016-0.424-1.671-0.768-1.999
		c-0.735-0.703-1.647-0.799-2.271-0.799c-0.16,0-0.456,0.023-0.52,0.056c-0.072,0.032-0.097,0.072-0.097,0.16
		c-0.008,0.271-0.008,0.967-0.008,1.599V151.152z"/>
	<path style="fill:#C0272D;" d="M74.318,150.824c0-1.031,0-1.224-0.008-1.439c-0.017-0.231-0.08-0.304-0.304-0.367
		c-0.057-0.017-0.176-0.024-0.28-0.024c-0.072,0-0.12-0.023-0.12-0.072c0-0.048,0.057-0.063,0.16-0.063
		c0.368,0,0.815,0.016,1.016,0.016c0.224,0,1.783,0.009,1.919,0c0.128-0.008,0.24-0.031,0.296-0.04
		c0.04-0.008,0.08-0.031,0.111-0.031c0.04,0,0.049,0.031,0.049,0.063c0,0.048-0.04,0.128-0.057,0.44
		c-0.008,0.071-0.023,0.367-0.04,0.447c-0.008,0.032-0.023,0.112-0.08,0.112c-0.048,0-0.056-0.032-0.056-0.088
		c0-0.049-0.008-0.168-0.048-0.248c-0.056-0.12-0.112-0.216-0.464-0.248c-0.12-0.016-0.959-0.032-1.104-0.032
		c-0.032,0-0.048,0.024-0.048,0.064v1.679c0,0.04,0.008,0.072,0.048,0.072c0.16,0,1.071,0,1.231-0.017
		c0.168-0.016,0.264-0.04,0.336-0.104c0.056-0.048,0.08-0.088,0.112-0.088c0.031,0,0.056,0.032,0.056,0.072
		c0,0.039-0.016,0.151-0.056,0.495c-0.017,0.136-0.032,0.408-0.032,0.456c0,0.056-0.008,0.151-0.072,0.151
		c-0.048,0-0.063-0.023-0.063-0.056c-0.009-0.072-0.009-0.16-0.024-0.248c-0.04-0.136-0.128-0.239-0.392-0.264
		c-0.128-0.016-0.928-0.032-1.104-0.032c-0.032,0-0.04,0.032-0.04,0.072v0.544c0,0.231-0.008,0.808,0,1.007
		c0.016,0.464,0.232,0.568,0.951,0.568c0.185,0,0.48-0.008,0.664-0.088c0.176-0.08,0.256-0.225,0.304-0.504
		c0.017-0.072,0.032-0.104,0.08-0.104c0.056,0,0.063,0.088,0.063,0.16c0,0.152-0.056,0.616-0.096,0.752
		c-0.048,0.176-0.111,0.176-0.376,0.176c-0.527,0-0.951-0.008-1.295-0.024c-0.344-0.008-0.607-0.016-0.815-0.016
		c-0.08,0-0.232,0.008-0.399,0.008c-0.168,0.008-0.345,0.017-0.488,0.017c-0.088,0-0.136-0.024-0.136-0.072
		c0-0.032,0.023-0.072,0.112-0.072c0.104,0,0.184-0.008,0.247-0.023c0.145-0.032,0.185-0.16,0.208-0.36
		c0.032-0.288,0.032-0.823,0.032-1.447V150.824z"/>
	<path style="fill:#C0272D;" d="M78.102,149.521c-0.159-0.376-0.264-0.44-0.52-0.504c-0.104-0.024-0.216-0.024-0.271-0.024
		c-0.064,0-0.08-0.032-0.08-0.072c0-0.056,0.072-0.063,0.176-0.063c0.376,0,0.775,0.016,1.023,0.016
		c0.176,0,0.544-0.016,0.896-0.016c0.088,0,0.168,0.016,0.168,0.063c0,0.049-0.048,0.072-0.112,0.072
		c-0.111,0-0.216,0.008-0.271,0.048c-0.048,0.032-0.072,0.072-0.072,0.136c0,0.089,0.064,0.272,0.16,0.512l1.184,3.047h0.023
		c0.305-0.704,1.208-2.895,1.376-3.342c0.031-0.088,0.063-0.192,0.063-0.248c0-0.072-0.032-0.096-0.096-0.12
		c-0.08-0.024-0.192-0.032-0.28-0.032c-0.063,0-0.119-0.023-0.119-0.072c0-0.048,0.063-0.063,0.199-0.063
		c0.353,0,0.664,0.016,0.752,0.016c0.12,0,0.447-0.016,0.663-0.016c0.088,0,0.145,0.016,0.145,0.063c0,0.049-0.04,0.072-0.112,0.072
		c-0.071,0-0.224-0.008-0.344,0.08c-0.088,0.064-0.184,0.168-0.368,0.6c-0.279,0.64-0.463,1.008-0.847,1.839
		c-0.448,0.991-0.776,1.735-0.936,2.079c-0.176,0.392-0.24,0.496-0.336,0.496s-0.152-0.088-0.288-0.408L78.102,149.521z"/>
	<path style="fill:#C0272D;" d="M83.662,150.824c0-1.031,0-1.224-0.008-1.439c-0.017-0.231-0.08-0.304-0.304-0.367
		c-0.057-0.017-0.176-0.024-0.28-0.024c-0.072,0-0.12-0.023-0.12-0.072c0-0.048,0.057-0.063,0.16-0.063
		c0.368,0,0.815,0.016,1.016,0.016c0.224,0,1.783,0.009,1.919,0c0.128-0.008,0.24-0.031,0.296-0.04
		c0.04-0.008,0.08-0.031,0.111-0.031c0.04,0,0.049,0.031,0.049,0.063c0,0.048-0.04,0.128-0.057,0.44
		c-0.008,0.071-0.023,0.367-0.04,0.447c-0.008,0.032-0.023,0.112-0.08,0.112c-0.048,0-0.056-0.032-0.056-0.088
		c0-0.049-0.008-0.168-0.048-0.248c-0.056-0.12-0.112-0.216-0.464-0.248c-0.12-0.016-0.959-0.032-1.104-0.032
		c-0.032,0-0.048,0.024-0.048,0.064v1.679c0,0.04,0.008,0.072,0.048,0.072c0.16,0,1.071,0,1.231-0.017
		c0.168-0.016,0.264-0.04,0.336-0.104c0.056-0.048,0.08-0.088,0.112-0.088c0.031,0,0.056,0.032,0.056,0.072
		c0,0.039-0.016,0.151-0.056,0.495c-0.017,0.136-0.032,0.408-0.032,0.456c0,0.056-0.008,0.151-0.072,0.151
		c-0.048,0-0.063-0.023-0.063-0.056c-0.009-0.072-0.009-0.16-0.024-0.248c-0.04-0.136-0.128-0.239-0.392-0.264
		c-0.128-0.016-0.928-0.032-1.104-0.032c-0.032,0-0.04,0.032-0.04,0.072v0.544c0,0.231-0.008,0.808,0,1.007
		c0.016,0.464,0.232,0.568,0.951,0.568c0.185,0,0.48-0.008,0.664-0.088c0.176-0.08,0.256-0.225,0.304-0.504
		c0.017-0.072,0.032-0.104,0.08-0.104c0.056,0,0.063,0.088,0.063,0.16c0,0.152-0.056,0.616-0.096,0.752
		c-0.048,0.176-0.111,0.176-0.376,0.176c-0.527,0-0.951-0.008-1.295-0.024c-0.344-0.008-0.607-0.016-0.815-0.016
		c-0.08,0-0.232,0.008-0.399,0.008c-0.168,0.008-0.345,0.017-0.488,0.017c-0.088,0-0.136-0.024-0.136-0.072
		c0-0.032,0.023-0.072,0.112-0.072c0.104,0,0.184-0.008,0.247-0.023c0.145-0.032,0.185-0.16,0.208-0.36
		c0.032-0.288,0.032-0.823,0.032-1.447V150.824z"/>
	<path style="fill:#C0272D;" d="M88.854,152.023c0,0.872,0,1.304,0.152,1.432c0.119,0.104,0.392,0.144,0.936,0.144
		c0.375,0,0.647-0.008,0.823-0.191c0.088-0.088,0.16-0.28,0.176-0.408c0.008-0.063,0.024-0.104,0.08-0.104
		c0.048,0,0.063,0.071,0.063,0.151s-0.048,0.584-0.104,0.784c-0.048,0.151-0.08,0.184-0.447,0.184c-0.504,0-0.912-0.008-1.264-0.024
		c-0.352-0.008-0.647-0.016-0.936-0.016c-0.08,0-0.232,0.008-0.399,0.008c-0.168,0.008-0.345,0.017-0.488,0.017
		c-0.088,0-0.136-0.024-0.136-0.072c0-0.032,0.023-0.072,0.112-0.072c0.104,0,0.184-0.008,0.247-0.023
		c0.145-0.032,0.185-0.16,0.208-0.36c0.032-0.288,0.032-0.823,0.032-1.447v-1.199c0-1.031,0-1.224-0.008-1.439
		c-0.017-0.231-0.08-0.304-0.304-0.367c-0.057-0.017-0.145-0.024-0.232-0.024c-0.08,0-0.12-0.023-0.12-0.072
		c0-0.048,0.049-0.063,0.152-0.063c0.328,0,0.775,0.016,0.968,0.016c0.168,0,0.743-0.016,1.015-0.016
		c0.104,0,0.152,0.016,0.152,0.063c0,0.049-0.04,0.072-0.128,0.072c-0.08,0-0.191,0.008-0.271,0.024
		c-0.192,0.032-0.248,0.128-0.265,0.367c-0.016,0.216-0.016,0.408-0.016,1.439V152.023z"/>
	<path style="fill:#C0272D;" d="M91.198,151.424c0-1.159,0.815-2.662,2.95-2.662c1.775,0,2.879,0.983,2.879,2.542
		c0,1.56-1.136,2.783-2.951,2.783C92.029,154.087,91.198,152.632,91.198,151.424z M95.979,151.552c0-1.503-0.903-2.431-2.039-2.431
		c-0.783,0-1.703,0.416-1.703,2.095c0,1.399,0.8,2.503,2.127,2.503C94.86,153.719,95.979,153.487,95.979,151.552z"/>
	<path style="fill:#C0272D;" d="M98.142,150.824c0-1.031,0-1.224-0.008-1.439c-0.017-0.231-0.08-0.304-0.304-0.367
		c-0.057-0.017-0.176-0.024-0.28-0.024c-0.072,0-0.12-0.023-0.12-0.072c0-0.048,0.057-0.063,0.16-0.063
		c0.368,0,0.815,0.016,1.016,0.016c0.288,0,0.848-0.016,1.167-0.016c0.88,0,1.199,0.288,1.312,0.384
		c0.152,0.144,0.352,0.447,0.352,0.815c0,0.96-0.768,1.647-1.767,1.647c-0.032,0-0.176,0-0.208-0.008
		c-0.04,0-0.088-0.024-0.088-0.072c0-0.056,0.08-0.088,0.231-0.088c0.392,0,0.943-0.408,0.943-1.104
		c0-0.224-0.023-0.672-0.415-1.008c-0.256-0.224-0.544-0.256-0.704-0.256c-0.104,0-0.239,0.008-0.304,0.032
		c-0.04,0.016-0.056,0.056-0.056,0.128v2.694c0,0.624,0,1.159,0.032,1.455c0.023,0.192,0.063,0.32,0.271,0.353
		c0.104,0.016,0.256,0.023,0.359,0.023c0.08,0,0.112,0.04,0.112,0.072c0,0.048-0.056,0.072-0.128,0.072
		c-0.472,0-0.968-0.024-1.151-0.024c-0.16,0-0.607,0.024-0.888,0.024c-0.088,0-0.136-0.024-0.136-0.072
		c0-0.032,0.024-0.072,0.112-0.072c0.104,0,0.184-0.008,0.247-0.023c0.145-0.032,0.185-0.16,0.208-0.36
		c0.032-0.288,0.032-0.823,0.032-1.447V150.824z"/>
	<path style="fill:#C0272D;" d="M102.974,148.913c0.017-0.111,0.08-0.176,0.136-0.176c0.072,0,0.12,0.032,0.216,0.216l1.888,3.758
		l1.887-3.806c0.056-0.111,0.12-0.168,0.184-0.168c0.057,0,0.136,0.072,0.16,0.216l0.64,4.182c0.063,0.424,0.128,0.608,0.344,0.672
		c0.2,0.056,0.312,0.064,0.399,0.064c0.064,0,0.112,0.023,0.112,0.063c0,0.056-0.08,0.08-0.184,0.08
		c-0.176,0-1.176-0.024-1.455-0.04c-0.168-0.008-0.208-0.04-0.208-0.08c0-0.032,0.031-0.056,0.08-0.072
		c0.04-0.016,0.056-0.096,0.031-0.287l-0.392-2.935h-0.023l-1.512,3.006c-0.16,0.32-0.2,0.384-0.279,0.384
		c-0.088,0-0.168-0.136-0.28-0.344c-0.168-0.312-0.728-1.351-0.808-1.543c-0.056-0.128-0.472-0.951-0.703-1.423h-0.024l-0.336,2.622
		c-0.016,0.12-0.023,0.208-0.023,0.32c0,0.128,0.096,0.176,0.216,0.199c0.12,0.024,0.184,0.032,0.247,0.032
		c0.064,0,0.112,0.032,0.112,0.064c0,0.063-0.063,0.08-0.168,0.08c-0.296,0-0.615-0.024-0.743-0.024
		c-0.136,0-0.472,0.024-0.696,0.024c-0.071,0-0.128-0.017-0.128-0.08c0-0.032,0.04-0.064,0.112-0.064c0.056,0,0.104,0,0.216-0.016
		c0.192-0.024,0.256-0.296,0.288-0.52L102.974,148.913z"/>
	<path style="fill:#C0272D;" d="M109.894,150.824c0-1.031,0-1.224-0.008-1.439c-0.017-0.231-0.08-0.304-0.304-0.367
		c-0.057-0.017-0.176-0.024-0.28-0.024c-0.072,0-0.12-0.023-0.12-0.072c0-0.048,0.057-0.063,0.16-0.063
		c0.368,0,0.815,0.016,1.016,0.016c0.224,0,1.783,0.009,1.919,0c0.128-0.008,0.239-0.031,0.296-0.04
		c0.04-0.008,0.08-0.031,0.111-0.031c0.04,0,0.049,0.031,0.049,0.063c0,0.048-0.04,0.128-0.057,0.44
		c-0.008,0.071-0.023,0.367-0.04,0.447c-0.008,0.032-0.023,0.112-0.08,0.112c-0.048,0-0.056-0.032-0.056-0.088
		c0-0.049-0.008-0.168-0.048-0.248c-0.056-0.12-0.112-0.216-0.464-0.248c-0.12-0.016-0.959-0.032-1.104-0.032
		c-0.031,0-0.048,0.024-0.048,0.064v1.679c0,0.04,0.008,0.072,0.048,0.072c0.16,0,1.071,0,1.231-0.017
		c0.168-0.016,0.264-0.04,0.336-0.104c0.056-0.048,0.08-0.088,0.112-0.088c0.031,0,0.056,0.032,0.056,0.072
		c0,0.039-0.016,0.151-0.056,0.495c-0.017,0.136-0.032,0.408-0.032,0.456c0,0.056-0.008,0.151-0.072,0.151
		c-0.048,0-0.063-0.023-0.063-0.056c-0.008-0.072-0.008-0.16-0.024-0.248c-0.04-0.136-0.128-0.239-0.392-0.264
		c-0.128-0.016-0.928-0.032-1.104-0.032c-0.032,0-0.04,0.032-0.04,0.072v0.544c0,0.231-0.008,0.808,0,1.007
		c0.017,0.464,0.232,0.568,0.951,0.568c0.185,0,0.48-0.008,0.664-0.088c0.176-0.08,0.256-0.225,0.304-0.504
		c0.016-0.072,0.032-0.104,0.08-0.104c0.056,0,0.064,0.088,0.064,0.16c0,0.152-0.057,0.616-0.097,0.752
		c-0.048,0.176-0.111,0.176-0.376,0.176c-0.527,0-0.951-0.008-1.295-0.024c-0.344-0.008-0.607-0.016-0.815-0.016
		c-0.08,0-0.231,0.008-0.399,0.008c-0.168,0.008-0.344,0.017-0.488,0.017c-0.088,0-0.136-0.024-0.136-0.072
		c0-0.032,0.024-0.072,0.112-0.072c0.104,0,0.184-0.008,0.247-0.023c0.145-0.032,0.185-0.16,0.208-0.36
		c0.032-0.288,0.032-0.823,0.032-1.447V150.824z"/>
	<path style="fill:#C0272D;" d="M114.581,153.071c0.017,0.527,0.104,0.688,0.24,0.735c0.12,0.04,0.256,0.048,0.368,0.048
		c0.079,0,0.119,0.032,0.119,0.072c0,0.056-0.063,0.072-0.159,0.072c-0.456,0-0.784-0.024-0.912-0.024
		c-0.063,0-0.399,0.024-0.76,0.024c-0.096,0-0.159-0.009-0.159-0.072c0-0.04,0.048-0.072,0.111-0.072
		c0.097,0,0.225-0.008,0.32-0.032c0.184-0.048,0.208-0.231,0.216-0.823l0.063-4.029c0-0.137,0.049-0.232,0.12-0.232
		c0.088,0,0.185,0.104,0.304,0.224c0.088,0.089,1.144,1.168,2.167,2.167c0.479,0.472,1.415,1.432,1.52,1.527h0.032l-0.072-3.022
		c-0.008-0.416-0.072-0.535-0.24-0.6c-0.104-0.04-0.271-0.04-0.367-0.04c-0.088,0-0.112-0.032-0.112-0.072
		c0-0.056,0.072-0.063,0.176-0.063c0.368,0,0.743,0.016,0.896,0.016c0.08,0,0.344-0.016,0.688-0.016c0.096,0,0.16,0.008,0.16,0.063
		c0,0.04-0.04,0.072-0.12,0.072c-0.072,0-0.128,0-0.216,0.024c-0.191,0.056-0.248,0.176-0.256,0.56l-0.08,4.285
		c0,0.152-0.056,0.216-0.111,0.216c-0.12,0-0.217-0.071-0.288-0.144c-0.44-0.408-1.319-1.247-2.055-1.959
		c-0.768-0.735-1.512-1.559-1.647-1.679h-0.024L114.581,153.071z"/>
	<path style="fill:#C0272D;" d="M121.605,149.273l-1.048,0.023c-0.407,0.009-0.575,0.057-0.68,0.208
		c-0.071,0.096-0.104,0.184-0.119,0.232c-0.017,0.056-0.032,0.088-0.08,0.088s-0.064-0.04-0.064-0.112
		c0-0.112,0.136-0.768,0.152-0.823c0.016-0.088,0.04-0.128,0.08-0.128c0.056,0,0.128,0.056,0.304,0.08
		c0.208,0.023,0.472,0.031,0.703,0.031h2.854c0.224,0,0.376-0.016,0.479-0.031c0.112-0.017,0.168-0.032,0.192-0.032
		c0.048,0,0.056,0.04,0.056,0.144c0,0.145-0.016,0.647-0.016,0.824c-0.008,0.071-0.024,0.111-0.064,0.111
		c-0.056,0-0.071-0.032-0.079-0.136l-0.009-0.072c-0.016-0.176-0.199-0.384-0.831-0.392l-0.888-0.016v2.75
		c0,0.624,0.008,1.159,0.04,1.455c0.024,0.192,0.063,0.32,0.271,0.353c0.097,0.016,0.256,0.023,0.36,0.023
		c0.08,0,0.111,0.04,0.111,0.072c0,0.048-0.056,0.072-0.136,0.072c-0.464,0-0.936-0.024-1.135-0.024c-0.16,0-0.64,0.024-0.92,0.024
		c-0.088,0-0.136-0.024-0.136-0.072c0-0.032,0.023-0.072,0.111-0.072c0.104,0,0.192-0.008,0.248-0.023
		c0.145-0.032,0.185-0.16,0.208-0.36c0.032-0.288,0.032-0.823,0.032-1.447V149.273z"/>
	<path style="fill:#C0272D;" d="M128.349,150.448c-0.335-0.447-0.399-0.775-0.407-1.135c-0.008-0.632,0.552-1.472,1.942-1.472
		c0.393,0,0.752,0.08,0.968,0.168c0.136,0.048,0.136,0.112,0.136,0.208c0,0.264-0.063,0.903-0.088,1.023
		c-0.016,0.12-0.048,0.136-0.096,0.136s-0.056-0.032-0.056-0.151c0-0.208-0.057-0.464-0.232-0.672
		c-0.16-0.192-0.439-0.36-0.888-0.36c-0.335,0-0.855,0.232-0.855,0.912c0,0.751,0.688,1.391,1.327,2.103
		c0.272,0.312,1.256,1.199,1.408,1.335c0.159-0.224,0.383-0.743,0.383-1.23c0-0.12-0.031-0.265-0.151-0.368
		c-0.104-0.096-0.271-0.12-0.392-0.12c-0.048,0-0.096-0.016-0.096-0.063c0-0.064,0.063-0.08,0.127-0.08
		c0.192,0,0.512,0.008,0.96,0.056c0.152,0.016,0.271,0.064,0.271,0.16c0,0.615-0.327,1.359-0.783,1.895
		c0.536,0.44,0.896,0.656,1.111,0.784c0.256,0.151,0.695,0.279,0.855,0.279c0.072,0,0.112,0.008,0.112,0.072
		c0,0.048-0.064,0.072-0.24,0.072h-0.615c-0.912,0-1.199-0.088-1.888-0.616c-0.264,0.24-0.799,0.728-1.895,0.728
		c-1.711,0-2.223-1.071-2.223-1.767C127.046,151.408,127.869,150.681,128.349,150.448z M130.852,153.127
		c-0.464-0.399-1.231-1.151-1.439-1.375c-0.207-0.224-0.719-0.8-0.855-1c-0.271,0.2-0.552,0.576-0.552,1.216
		c0,0.999,0.704,1.639,1.535,1.639C130.156,153.606,130.684,153.287,130.852,153.127z"/>
	<path style="fill:#C0272D;" d="M136.533,150.272c0-1.215,0-1.439-0.017-1.695c-0.016-0.271-0.096-0.407-0.271-0.447
		c-0.088-0.024-0.192-0.032-0.288-0.032c-0.08,0-0.128-0.016-0.128-0.08c0-0.048,0.064-0.063,0.192-0.063
		c0.304,0,0.808,0.023,1.039,0.023c0.2,0,0.672-0.023,0.976-0.023c0.104,0,0.168,0.016,0.168,0.063c0,0.064-0.048,0.08-0.128,0.08
		s-0.144,0.008-0.24,0.024c-0.216,0.04-0.279,0.176-0.296,0.455c-0.016,0.256-0.016,0.48-0.016,1.695v1.407
		c0,0.775,0,1.407,0.032,1.751c0.023,0.216,0.08,0.36,0.319,0.392c0.112,0.017,0.288,0.032,0.408,0.032
		c0.088,0,0.128,0.024,0.128,0.064c0,0.056-0.064,0.08-0.152,0.08c-0.527,0-1.031-0.024-1.247-0.024
		c-0.184,0-0.688,0.024-1.008,0.024c-0.104,0-0.159-0.024-0.159-0.08c0-0.04,0.031-0.064,0.128-0.064
		c0.119,0,0.216-0.016,0.287-0.032c0.16-0.031,0.208-0.167,0.232-0.399c0.04-0.336,0.04-0.968,0.04-1.743V150.272z"/>
	<path style="fill:#C0272D;" d="M140.069,153.071c0.017,0.527,0.104,0.688,0.24,0.735c0.12,0.04,0.256,0.048,0.368,0.048
		c0.079,0,0.119,0.032,0.119,0.072c0,0.056-0.063,0.072-0.159,0.072c-0.456,0-0.784-0.024-0.912-0.024
		c-0.063,0-0.399,0.024-0.76,0.024c-0.096,0-0.159-0.009-0.159-0.072c0-0.04,0.048-0.072,0.111-0.072
		c0.097,0,0.225-0.008,0.32-0.032c0.184-0.048,0.208-0.231,0.216-0.823l0.063-4.029c0-0.137,0.049-0.232,0.12-0.232
		c0.088,0,0.185,0.104,0.304,0.224c0.088,0.089,1.144,1.168,2.167,2.167c0.479,0.472,1.415,1.432,1.52,1.527h0.032l-0.072-3.022
		c-0.008-0.416-0.072-0.535-0.24-0.6c-0.104-0.04-0.271-0.04-0.367-0.04c-0.088,0-0.112-0.032-0.112-0.072
		c0-0.056,0.072-0.063,0.176-0.063c0.368,0,0.743,0.016,0.896,0.016c0.08,0,0.344-0.016,0.688-0.016c0.096,0,0.16,0.008,0.16,0.063
		c0,0.04-0.04,0.072-0.12,0.072c-0.072,0-0.128,0-0.216,0.024c-0.191,0.056-0.248,0.176-0.256,0.56l-0.08,4.285
		c0,0.152-0.056,0.216-0.111,0.216c-0.12,0-0.217-0.071-0.288-0.144c-0.44-0.408-1.319-1.247-2.055-1.959
		c-0.768-0.735-1.512-1.559-1.647-1.679h-0.024L140.069,153.071z"/>
	<path style="fill:#C0272D;" d="M145.493,149.521c-0.159-0.376-0.264-0.44-0.52-0.504c-0.104-0.024-0.216-0.024-0.271-0.024
		c-0.064,0-0.08-0.032-0.08-0.072c0-0.056,0.072-0.063,0.176-0.063c0.376,0,0.775,0.016,1.023,0.016
		c0.176,0,0.544-0.016,0.896-0.016c0.088,0,0.168,0.016,0.168,0.063c0,0.049-0.048,0.072-0.112,0.072
		c-0.111,0-0.216,0.008-0.271,0.048c-0.048,0.032-0.072,0.072-0.072,0.136c0,0.089,0.064,0.272,0.16,0.512l1.184,3.047h0.023
		c0.305-0.704,1.208-2.895,1.376-3.342c0.031-0.088,0.063-0.192,0.063-0.248c0-0.072-0.032-0.096-0.096-0.12
		c-0.08-0.024-0.192-0.032-0.28-0.032c-0.063,0-0.119-0.023-0.119-0.072c0-0.048,0.063-0.063,0.199-0.063
		c0.352,0,0.664,0.016,0.752,0.016c0.12,0,0.447-0.016,0.663-0.016c0.089,0,0.145,0.016,0.145,0.063c0,0.049-0.04,0.072-0.112,0.072
		s-0.224-0.008-0.344,0.08c-0.088,0.064-0.184,0.168-0.367,0.6c-0.28,0.64-0.464,1.008-0.848,1.839
		c-0.448,0.991-0.776,1.735-0.936,2.079c-0.176,0.392-0.24,0.496-0.336,0.496s-0.152-0.088-0.288-0.408L145.493,149.521z"/>
	<path style="fill:#C0272D;" d="M151.054,150.824c0-1.031,0-1.224-0.008-1.439c-0.017-0.231-0.08-0.304-0.304-0.367
		c-0.057-0.017-0.176-0.024-0.28-0.024c-0.072,0-0.12-0.023-0.12-0.072c0-0.048,0.057-0.063,0.16-0.063
		c0.368,0,0.815,0.016,1.016,0.016c0.224,0,1.783,0.009,1.919,0c0.128-0.008,0.239-0.031,0.296-0.04
		c0.04-0.008,0.08-0.031,0.111-0.031c0.04,0,0.049,0.031,0.049,0.063c0,0.048-0.04,0.128-0.057,0.44
		c-0.008,0.071-0.023,0.367-0.04,0.447c-0.008,0.032-0.023,0.112-0.08,0.112c-0.048,0-0.056-0.032-0.056-0.088
		c0-0.049-0.008-0.168-0.048-0.248c-0.056-0.12-0.112-0.216-0.464-0.248c-0.12-0.016-0.959-0.032-1.104-0.032
		c-0.031,0-0.048,0.024-0.048,0.064v1.679c0,0.04,0.008,0.072,0.048,0.072c0.16,0,1.071,0,1.231-0.017
		c0.168-0.016,0.264-0.04,0.336-0.104c0.056-0.048,0.08-0.088,0.112-0.088c0.031,0,0.056,0.032,0.056,0.072
		c0,0.039-0.016,0.151-0.056,0.495c-0.017,0.136-0.032,0.408-0.032,0.456c0,0.056-0.008,0.151-0.072,0.151
		c-0.048,0-0.063-0.023-0.063-0.056c-0.008-0.072-0.008-0.16-0.024-0.248c-0.04-0.136-0.128-0.239-0.392-0.264
		c-0.128-0.016-0.928-0.032-1.104-0.032c-0.032,0-0.04,0.032-0.04,0.072v0.544c0,0.231-0.008,0.808,0,1.007
		c0.017,0.464,0.232,0.568,0.951,0.568c0.185,0,0.48-0.008,0.664-0.088c0.176-0.08,0.256-0.225,0.304-0.504
		c0.016-0.072,0.032-0.104,0.08-0.104c0.056,0,0.064,0.088,0.064,0.16c0,0.152-0.057,0.616-0.097,0.752
		c-0.048,0.176-0.111,0.176-0.376,0.176c-0.527,0-0.951-0.008-1.295-0.024c-0.344-0.008-0.607-0.016-0.815-0.016
		c-0.08,0-0.231,0.008-0.399,0.008c-0.168,0.008-0.344,0.017-0.488,0.017c-0.088,0-0.136-0.024-0.136-0.072
		c0-0.032,0.024-0.072,0.112-0.072c0.104,0,0.184-0.008,0.247-0.023c0.145-0.032,0.185-0.16,0.208-0.36
		c0.032-0.288,0.032-0.823,0.032-1.447V150.824z"/>
	<path style="fill:#C0272D;" d="M155.077,153.911c-0.112-0.049-0.136-0.08-0.136-0.232c0-0.368,0.032-0.791,0.04-0.903
		c0-0.104,0.032-0.176,0.088-0.176c0.063,0,0.071,0.063,0.071,0.111c0,0.088,0.024,0.232,0.064,0.353
		c0.152,0.503,0.68,0.671,1.119,0.671c0.607,0,0.976-0.384,0.976-0.863c0-0.296-0.072-0.592-0.695-0.959l-0.408-0.24
		c-0.831-0.487-1.104-0.943-1.104-1.543c0-0.832,0.8-1.367,1.775-1.367c0.456,0,0.815,0.063,0.999,0.111
		c0.064,0.017,0.097,0.04,0.097,0.088c0,0.089-0.024,0.28-0.024,0.816c0,0.144-0.032,0.216-0.088,0.216
		c-0.048,0-0.072-0.04-0.072-0.12c0-0.064-0.031-0.272-0.184-0.448c-0.104-0.128-0.328-0.319-0.783-0.319
		c-0.504,0-0.96,0.264-0.96,0.728c0,0.304,0.112,0.544,0.744,0.896l0.287,0.16c0.928,0.512,1.216,1.031,1.216,1.646
		c0,0.504-0.192,0.912-0.704,1.271c-0.335,0.24-0.799,0.28-1.175,0.28C155.813,154.087,155.381,154.047,155.077,153.911z"/>
	<path style="fill:#C0272D;" d="M160.517,149.273l-1.048,0.023c-0.407,0.009-0.575,0.057-0.68,0.208
		c-0.071,0.096-0.104,0.184-0.119,0.232c-0.017,0.056-0.032,0.088-0.08,0.088s-0.064-0.04-0.064-0.112
		c0-0.112,0.136-0.768,0.152-0.823c0.016-0.088,0.04-0.128,0.08-0.128c0.056,0,0.128,0.056,0.304,0.08
		c0.208,0.023,0.472,0.031,0.703,0.031h2.854c0.225,0,0.376-0.016,0.48-0.031c0.111-0.017,0.167-0.032,0.191-0.032
		c0.048,0,0.056,0.04,0.056,0.144c0,0.145-0.016,0.647-0.016,0.824c-0.008,0.071-0.024,0.111-0.064,0.111
		c-0.056,0-0.071-0.032-0.079-0.136l-0.009-0.072c-0.016-0.176-0.199-0.384-0.831-0.392l-0.888-0.016v2.75
		c0,0.624,0.008,1.159,0.04,1.455c0.024,0.192,0.064,0.32,0.271,0.353c0.097,0.016,0.256,0.023,0.36,0.023
		c0.08,0,0.111,0.04,0.111,0.072c0,0.048-0.056,0.072-0.136,0.072c-0.464,0-0.936-0.024-1.135-0.024c-0.16,0-0.64,0.024-0.92,0.024
		c-0.088,0-0.136-0.024-0.136-0.072c0-0.032,0.023-0.072,0.112-0.072c0.104,0,0.191-0.008,0.247-0.023
		c0.145-0.032,0.185-0.16,0.208-0.36c0.032-0.288,0.032-0.823,0.032-1.447V149.273z"/>
	<path style="fill:#C0272D;" d="M164.589,148.913c0.017-0.111,0.08-0.176,0.136-0.176c0.072,0,0.12,0.032,0.216,0.216l1.888,3.758
		l1.887-3.806c0.056-0.111,0.12-0.168,0.184-0.168c0.057,0,0.136,0.072,0.16,0.216l0.64,4.182c0.063,0.424,0.128,0.608,0.344,0.672
		c0.2,0.056,0.312,0.064,0.399,0.064c0.064,0,0.112,0.023,0.112,0.063c0,0.056-0.08,0.08-0.184,0.08
		c-0.176,0-1.176-0.024-1.455-0.04c-0.168-0.008-0.208-0.04-0.208-0.08c0-0.032,0.031-0.056,0.08-0.072
		c0.04-0.016,0.056-0.096,0.031-0.287l-0.392-2.935h-0.023l-1.512,3.006c-0.16,0.32-0.2,0.384-0.279,0.384
		c-0.088,0-0.168-0.136-0.28-0.344c-0.168-0.312-0.728-1.351-0.808-1.543c-0.056-0.128-0.472-0.951-0.703-1.423h-0.024l-0.336,2.622
		c-0.016,0.12-0.023,0.208-0.023,0.32c0,0.128,0.096,0.176,0.216,0.199c0.12,0.024,0.184,0.032,0.247,0.032
		c0.064,0,0.112,0.032,0.112,0.064c0,0.063-0.063,0.08-0.168,0.08c-0.296,0-0.615-0.024-0.743-0.024
		c-0.136,0-0.472,0.024-0.696,0.024c-0.071,0-0.128-0.017-0.128-0.08c0-0.032,0.04-0.064,0.112-0.064c0.056,0,0.104,0,0.216-0.016
		c0.192-0.024,0.256-0.296,0.288-0.52L164.589,148.913z"/>
	<path style="fill:#C0272D;" d="M171.509,150.824c0-1.031,0-1.224-0.008-1.439c-0.017-0.231-0.08-0.304-0.304-0.367
		c-0.057-0.017-0.176-0.024-0.28-0.024c-0.072,0-0.12-0.023-0.12-0.072c0-0.048,0.057-0.063,0.16-0.063
		c0.368,0,0.815,0.016,1.016,0.016c0.224,0,1.783,0.009,1.919,0c0.128-0.008,0.239-0.031,0.296-0.04
		c0.04-0.008,0.08-0.031,0.111-0.031c0.04,0,0.049,0.031,0.049,0.063c0,0.048-0.04,0.128-0.057,0.44
		c-0.008,0.071-0.023,0.367-0.04,0.447c-0.008,0.032-0.023,0.112-0.08,0.112c-0.048,0-0.056-0.032-0.056-0.088
		c0-0.049-0.008-0.168-0.048-0.248c-0.056-0.12-0.112-0.216-0.464-0.248c-0.12-0.016-0.959-0.032-1.104-0.032
		c-0.031,0-0.048,0.024-0.048,0.064v1.679c0,0.04,0.008,0.072,0.048,0.072c0.16,0,1.071,0,1.231-0.017
		c0.168-0.016,0.264-0.04,0.336-0.104c0.056-0.048,0.08-0.088,0.112-0.088c0.031,0,0.056,0.032,0.056,0.072
		c0,0.039-0.016,0.151-0.056,0.495c-0.017,0.136-0.032,0.408-0.032,0.456c0,0.056-0.008,0.151-0.072,0.151
		c-0.048,0-0.063-0.023-0.063-0.056c-0.008-0.072-0.008-0.16-0.024-0.248c-0.04-0.136-0.128-0.239-0.392-0.264
		c-0.128-0.016-0.928-0.032-1.104-0.032c-0.032,0-0.04,0.032-0.04,0.072v0.544c0,0.231-0.008,0.808,0,1.007
		c0.017,0.464,0.232,0.568,0.951,0.568c0.185,0,0.48-0.008,0.664-0.088c0.176-0.08,0.256-0.225,0.304-0.504
		c0.016-0.072,0.032-0.104,0.08-0.104c0.056,0,0.064,0.088,0.064,0.16c0,0.152-0.057,0.616-0.097,0.752
		c-0.048,0.176-0.111,0.176-0.376,0.176c-0.527,0-0.951-0.008-1.295-0.024c-0.344-0.008-0.607-0.016-0.815-0.016
		c-0.08,0-0.231,0.008-0.399,0.008c-0.168,0.008-0.344,0.017-0.488,0.017c-0.088,0-0.136-0.024-0.136-0.072
		c0-0.032,0.024-0.072,0.112-0.072c0.104,0,0.184-0.008,0.247-0.023c0.145-0.032,0.185-0.16,0.208-0.36
		c0.032-0.288,0.032-0.823,0.032-1.447V150.824z"/>
	<path style="fill:#C0272D;" d="M176.196,153.071c0.017,0.527,0.104,0.688,0.24,0.735c0.12,0.04,0.256,0.048,0.368,0.048
		c0.079,0,0.119,0.032,0.119,0.072c0,0.056-0.063,0.072-0.159,0.072c-0.456,0-0.784-0.024-0.912-0.024
		c-0.063,0-0.399,0.024-0.76,0.024c-0.096,0-0.159-0.009-0.159-0.072c0-0.04,0.048-0.072,0.111-0.072
		c0.097,0,0.225-0.008,0.32-0.032c0.184-0.048,0.208-0.231,0.216-0.823l0.063-4.029c0-0.137,0.049-0.232,0.12-0.232
		c0.088,0,0.185,0.104,0.304,0.224c0.088,0.089,1.144,1.168,2.167,2.167c0.479,0.472,1.415,1.432,1.52,1.527h0.032l-0.072-3.022
		c-0.008-0.416-0.072-0.535-0.24-0.6c-0.104-0.04-0.271-0.04-0.367-0.04c-0.088,0-0.112-0.032-0.112-0.072
		c0-0.056,0.072-0.063,0.176-0.063c0.368,0,0.743,0.016,0.896,0.016c0.08,0,0.344-0.016,0.688-0.016c0.096,0,0.16,0.008,0.16,0.063
		c0,0.04-0.04,0.072-0.12,0.072c-0.072,0-0.128,0-0.216,0.024c-0.191,0.056-0.248,0.176-0.256,0.56l-0.08,4.285
		c0,0.152-0.056,0.216-0.111,0.216c-0.12,0-0.217-0.071-0.288-0.144c-0.44-0.408-1.319-1.247-2.055-1.959
		c-0.768-0.735-1.512-1.559-1.647-1.679h-0.024L176.196,153.071z"/>
	<path style="fill:#C0272D;" d="M183.221,149.273l-1.048,0.023c-0.407,0.009-0.575,0.057-0.68,0.208
		c-0.071,0.096-0.104,0.184-0.119,0.232c-0.017,0.056-0.032,0.088-0.08,0.088s-0.064-0.04-0.064-0.112
		c0-0.112,0.136-0.768,0.152-0.823c0.016-0.088,0.04-0.128,0.08-0.128c0.056,0,0.128,0.056,0.304,0.08
		c0.208,0.023,0.472,0.031,0.703,0.031h2.854c0.224,0,0.376-0.016,0.479-0.031c0.112-0.017,0.168-0.032,0.192-0.032
		c0.048,0,0.056,0.04,0.056,0.144c0,0.145-0.016,0.647-0.016,0.824c-0.008,0.071-0.024,0.111-0.064,0.111
		c-0.056,0-0.071-0.032-0.079-0.136l-0.009-0.072c-0.016-0.176-0.199-0.384-0.831-0.392l-0.888-0.016v2.75
		c0,0.624,0.008,1.159,0.04,1.455c0.024,0.192,0.063,0.32,0.271,0.353c0.097,0.016,0.256,0.023,0.36,0.023
		c0.08,0,0.111,0.04,0.111,0.072c0,0.048-0.056,0.072-0.136,0.072c-0.464,0-0.936-0.024-1.135-0.024c-0.16,0-0.64,0.024-0.92,0.024
		c-0.088,0-0.136-0.024-0.136-0.072c0-0.032,0.023-0.072,0.111-0.072c0.104,0,0.192-0.008,0.248-0.023
		c0.145-0.032,0.185-0.16,0.208-0.36c0.032-0.288,0.032-0.823,0.032-1.447V149.273z"/>
</g>
</svg>
