<?xml version="1.0" encoding="iso-8859-1"?>
<!-- Generator: Adobe Illustrator 18.1.1, SVG Export Plug-In . SVG Version: 6.00 Build 0)  -->
<svg version="1.1" id="Layer_1" xmlns="http://www.w3.org/2000/svg" xmlns:xlink="http://www.w3.org/1999/xlink" x="0px" y="0px"
	 viewBox="0 0 20.475 33.333" style="enable-background:new 0 0 20.475 33.333;" xml:space="preserve">
<g>
	<path style="fill:#FFFFFF;" d="M16.407,33.333H4.068C1.825,33.333,0,31.508,0,29.265V4.068C0,1.825,1.825,0,4.068,0h12.339
		c2.243,0,4.068,1.825,4.068,4.068v25.197C20.475,31.508,18.651,33.333,16.407,33.333z M4.068,0.839
		c-1.781,0-3.229,1.449-3.229,3.229v25.197c0,1.781,1.449,3.229,3.229,3.229h12.339c1.78,0,3.229-1.449,3.229-3.229V4.068
		c0-1.781-1.449-3.229-3.229-3.229H4.068z M12.753,31.301H7.722c-0.694,0-1.258-0.564-1.258-1.258c0-0.694,0.564-1.258,1.258-1.258
		h5.031c0.694,0,1.258,0.564,1.258,1.258C14.011,30.737,13.447,31.301,12.753,31.301z M7.722,29.624
		c-0.231,0-0.419,0.188-0.419,0.419c0,0.231,0.188,0.419,0.419,0.419h5.031c0.231,0,0.419-0.188,0.419-0.419
		c0-0.231-0.188-0.419-0.419-0.419H7.722z M15.79,28.261H4.685c-1.618,0-2.935-1.317-2.935-2.935V4.711
		c0-1.618,1.317-2.935,2.935-2.935H15.79c1.618,0,2.935,1.317,2.935,2.935v20.615C18.725,26.945,17.409,28.261,15.79,28.261z
		 M4.685,2.615c-1.156,0-2.096,0.941-2.096,2.096v20.615c0,1.156,0.941,2.096,2.096,2.096H15.79c1.156,0,2.096-0.941,2.096-2.096
		V4.711c0-1.156-0.941-2.096-2.096-2.096H4.685z"/>
</g>
</svg>
